<?xml version="1.0" encoding="UTF-8" standalone="no"?>
<svg
   xmlns:dc="http://purl.org/dc/elements/1.1/"
   xmlns:cc="http://creativecommons.org/ns#"
   xmlns:rdf="http://www.w3.org/1999/02/22-rdf-syntax-ns#"
   xmlns:svg="http://www.w3.org/2000/svg"
   xmlns="http://www.w3.org/2000/svg"
   id="svg8"
   version="1.1"
   viewBox="0 0 210 297"
   height="297mm"
   width="210mm">
  <defs
     id="defs2" />
  <metadata
     id="metadata5">
    <rdf:RDF>
      <cc:Work
         rdf:about="">
        <dc:format>image/svg+xml</dc:format>
        <dc:type
           rdf:resource="http://purl.org/dc/dcmitype/StillImage" />
        <dc:title></dc:title>
      </cc:Work>
    </rdf:RDF>
  </metadata>
  <g
     id="layer1">
    <path
       transform="matrix(1.6002715,0,0,1.6002715,-23.546785,-105.71466)"
       d="m 73.164062,172.27344 a 0.90993896,0.90993896 0 0 0 -0.896484,0.71875 l -1.416016,6.55273 a 0.90993896,0.90993896 0 0 0 0.871094,1.10156 l 6.257813,0.11914 A 0.90993896,0.90993896 0 0 0 78.875,180.09766 l 1.830078,-6.61328 a 0.90993896,0.90993896 0 0 0 -0.86914,-1.15235 z"
       id="path817-3-0"
       style="fill:#000000;stroke:none;stroke-width:0.26458332px;stroke-linecap:butt;stroke-linejoin:miter;stroke-opacity:1" />
    <path
       transform="matrix(1.6002715,0,0,1.6002715,-46.703031,-106.56127)"
       d="m 73.164062,172.27344 a 0.90993896,0.90993896 0 0 0 -0.896484,0.71875 l -1.416016,6.55273 a 0.90993896,0.90993896 0 0 0 0.871094,1.10156 l 6.257813,0.11914 A 0.90993896,0.90993896 0 0 0 78.875,180.09766 l 1.830078,-6.61328 a 0.90993896,0.90993896 0 0 0 -0.86914,-1.15235 z"
       id="path817-3"
       style="fill:#000000;stroke:none;stroke-width:0.26458332px;stroke-linecap:butt;stroke-linejoin:miter;stroke-opacity:1" />
    <path
       id="path817"
       d="m 70.367246,170.57864 -2.267703,10.48812 10.015698,0.18898 2.929119,-10.58263 z"
       style="fill:#ff6600;stroke:none;stroke-width:0.42340517px;stroke-linecap:butt;stroke-linejoin:miter;stroke-opacity:1" />
    <path
       id="path840"
       d="m 68.099543,181.06676 3.212582,-9.07082 -0.944879,-1.4173 z"
       style="fill:#ffb380;stroke:none;stroke-width:0.42340517px;stroke-linecap:butt;stroke-linejoin:miter;stroke-opacity:1" />
    <path
       id="path842"
       d="m 71.312125,171.99594 9.732235,-1.32283 -10.677114,-0.0944 z"
       style="fill:#ff7f2a;stroke:none;stroke-width:0.42340517px;stroke-linecap:butt;stroke-linejoin:miter;stroke-opacity:1" />
    <path
       id="path844"
       d="m 68.099543,181.06676 9.165308,-0.89762 0.85039,1.0866 z"
       style="fill:#aa4400;stroke:none;stroke-width:0.42340517px;stroke-linecap:butt;stroke-linejoin:miter;stroke-opacity:1" />
    <path
       id="path846"
       d="m 77.264851,180.16914 3.779509,-9.49603 -2.929119,10.58263 z"
       style="fill:#d45500;stroke:none;stroke-width:0.42340517px;stroke-linecap:butt;stroke-linejoin:miter;stroke-opacity:1" />
    <path
       id="path819"
       d="m 82.256352,167.10391 -9.226568,9.55475 -1.478376,-2.46292 -2.744213,1.64717 3.622487,6.04164 12.12706,-12.55527 z"
       style="color:#000000;font-style:normal;font-variant:normal;font-weight:normal;font-stretch:normal;font-size:medium;line-height:normal;font-family:sans-serif;font-variant-ligatures:normal;font-variant-position:normal;font-variant-caps:normal;font-variant-numeric:normal;font-variant-alternates:normal;font-feature-settings:normal;text-indent:0;text-align:start;text-decoration:none;text-decoration-line:none;text-decoration-style:solid;text-decoration-color:#000000;letter-spacing:normal;word-spacing:normal;text-transform:none;writing-mode:lr-tb;direction:ltr;text-orientation:mixed;dominant-baseline:auto;baseline-shift:baseline;text-anchor:start;white-space:normal;shape-padding:0;clip-rule:nonzero;display:inline;overflow:visible;visibility:visible;opacity:1;isolation:auto;mix-blend-mode:normal;color-interpolation:sRGB;color-interpolation-filters:linearRGB;solid-color:#000000;solid-opacity:1;vector-effect:none;fill:#ffffff;fill-opacity:1;fill-rule:nonzero;stroke:none;stroke-width:3.20054317;stroke-linecap:butt;stroke-linejoin:miter;stroke-miterlimit:4;stroke-dasharray:none;stroke-dashoffset:0;stroke-opacity:1;color-rendering:auto;image-rendering:auto;shape-rendering:auto;text-rendering:auto;enable-background:accumulate" />
    <path
       id="path817-5"
       d="m 93.523494,171.42526 -2.267704,10.48813 10.0157,0.18897 2.92911,-10.58263 z"
       style="fill:#808080;stroke:none;stroke-width:0.42340517px;stroke-linecap:butt;stroke-linejoin:miter;stroke-opacity:1" />
    <path
       id="path840-3"
       d="m 91.25579,181.91339 3.212582,-9.07082 -0.944878,-1.41731 z"
       style="fill:#4d4d4d;stroke:none;stroke-width:0.42340517px;stroke-linecap:butt;stroke-linejoin:miter;stroke-opacity:1" />
    <path
       id="path842-5"
       d="m 94.468372,172.84257 9.732228,-1.32284 -10.677106,-0.0944 z"
       style="fill:#666666;stroke:none;stroke-width:0.42340517px;stroke-linecap:butt;stroke-linejoin:miter;stroke-opacity:1" />
    <path
       id="path844-6"
       d="m 91.25579,181.91339 9.16531,-0.89763 0.85039,1.0866 z"
       style="fill:#b3b3b3;stroke:none;stroke-width:0.42340517px;stroke-linecap:butt;stroke-linejoin:miter;stroke-opacity:1" />
    <path
       id="path846-2"
       d="m 100.4211,181.01576 3.7795,-9.49603 -2.92911,10.58263 z"
       style="fill:#cccccc;stroke:none;stroke-width:0.42340517px;stroke-linecap:butt;stroke-linejoin:miter;stroke-opacity:1" />
    <g
       transform="matrix(0.26458333,0,0,0.26458333,13.087018,67.479772)"
       id="layer1-0">
      <path
         transform="matrix(1,0,0,1.0000064,-16.422853,266.82393)"
         d="m 33.201172,116.80273 a 6.080091,6.080091 0 0 0 -5.833984,4.3711 l -10.699219,36.51953 a 6.080091,6.080091 0 0 0 5.833984,7.78906 H 182.23438 a 6.080091,6.080091 0 0 0 5.83398,-4.37109 l 10.69726,-36.51953 a 6.080091,6.080091 0 0 0 -5.83398,-7.78907 z"
         id="path823-3"
         style="fill:#000000;stroke:none;stroke-width:0.26458332px;stroke-linecap:butt;stroke-linejoin:miter;stroke-opacity:1" />
      <path
         id="path823"
         d="M 6.0796554,426.22763 16.777569,389.70693 H 176.50849 l -10.69791,36.5207 z"
         style="fill:#f2f2f2;stroke:none;stroke-width:0.26458415px;stroke-linecap:butt;stroke-linejoin:miter;stroke-opacity:1" />
      <path
         id="path842-9"
         d="m 16.777569,389.70693 1.695507,3.65188 158.035414,-3.65188 z"
         style="fill:#ffffff;stroke:none;stroke-width:0.26500082;stroke-linecap:butt;stroke-linejoin:miter;stroke-miterlimit:4;stroke-dasharray:none;stroke-opacity:1" />
      <path
         id="path844-3"
         d="M 18.473077,393.35881 6.0796554,426.22763 16.777569,389.70693 Z"
         style="fill:#f9f9f9;stroke:none;stroke-width:0.26500082;stroke-linecap:butt;stroke-linejoin:miter;stroke-miterlimit:4;stroke-dasharray:none;stroke-opacity:1" />
      <path
         id="path846-6"
         d="M 6.0796554,426.22763 H 165.81058 l -4.72694,-5.21654 z"
         style="fill:#e6e6e6;stroke:none;stroke-width:0.26458415px;stroke-linecap:butt;stroke-linejoin:miter;stroke-opacity:1" />
      <path
         id="path848"
         d="m 161.08364,421.01109 15.42485,-31.30416 -10.69791,36.5207 z"
         style="fill:#cccccc;stroke:none;stroke-width:0.26458415px;stroke-linecap:butt;stroke-linejoin:miter;stroke-opacity:1" />
      <path
         id="path936"
         d="m 147.14249,404.86433 6.91801,7.14117 6.91801,-7.14117 z"
         style="fill:#000000;stroke:none;stroke-width:1px;stroke-linecap:butt;stroke-linejoin:miter;stroke-opacity:1" />
    </g>
  </g>
</svg>
