<?xml version="1.0" encoding="UTF-8" standalone="no"?>
<!-- Created with Inkscape (http://www.inkscape.org/) -->

<svg
   xmlns:dc="http://purl.org/dc/elements/1.1/"
   xmlns:cc="http://creativecommons.org/ns#"
   xmlns:rdf="http://www.w3.org/1999/02/22-rdf-syntax-ns#"
   xmlns:svg="http://www.w3.org/2000/svg"
   xmlns="http://www.w3.org/2000/svg"
   xmlns:sodipodi="http://sodipodi.sourceforge.net/DTD/sodipodi-0.dtd"
   xmlns:inkscape="http://www.inkscape.org/namespaces/inkscape"
   width="128"
   height="128"
   viewBox="0 0 128 128.00001"
   version="1.1"
   id="svg6294"
   inkscape:version="0.92.3 (2405546, 2018-03-11)"
   sodipodi:docname="difficulty_hard.svg">
  <defs
     id="defs6288" />
  <sodipodi:namedview
     id="base"
     pagecolor="#ffffff"
     bordercolor="#666666"
     borderopacity="1.0"
     inkscape:pageopacity="0.0"
     inkscape:pageshadow="2"
     inkscape:zoom="2.1832557"
     inkscape:cx="15.209465"
     inkscape:cy="58.590742"
     inkscape:document-units="px"
     inkscape:current-layer="layer1"
     showgrid="false"
     units="px"
     inkscape:window-width="1366"
     inkscape:window-height="713"
     inkscape:window-x="0"
     inkscape:window-y="27"
     inkscape:window-maximized="1" />
  <metadata
     id="metadata6291">
    <rdf:RDF>
      <cc:Work
         rdf:about="">
        <dc:format>image/svg+xml</dc:format>
        <dc:type
           rdf:resource="http://purl.org/dc/dcmitype/StillImage" />
        <dc:title></dc:title>
      </cc:Work>
    </rdf:RDF>
  </metadata>
  <g
     inkscape:label="Layer 1"
     inkscape:groupmode="layer"
     id="layer1"
     transform="translate(0,-994.51965)">
    <path
       sodipodi:type="inkscape:offset"
       inkscape:radius="3.3050923"
       inkscape:original="M 4520.4023 1045.7246 L 4513.1074 1045.9082 L 4496.2207 1046.3359 L 4491.0879 1050.0762 L 4481.8105 1056.8379 L 4475.4609 1071.7383 L 4475.2148 1089.3242 L 4487.3105 1108.9766 L 4503.8965 1109.1973 L 4502.9688 1106.1172 L 4509.1914 1104.9824 L 4522.9141 1105.2695 L 4538.9434 1105.4688 L 4542.9961 1088.8359 L 4545.3418 1080.6211 L 4543.1172 1070.8828 L 4535.4238 1055.6172 L 4520.4023 1045.7246 z "
       style="fill:#1a1a1a;stroke:none;stroke-width:0.83979386px;stroke-linecap:butt;stroke-linejoin:miter;stroke-opacity:1"
       id="path3284-6"
       d="m 4520.3184,1042.4199 -7.295,0.1836 -16.8867,0.4277 a 3.3054228,3.3054228 0 0 0 -1.8633,0.6329 l -5.1328,3.7402 -9.2773,6.7617 a 3.3054228,3.3054228 0 0 0 -1.0938,1.377 l -6.3496,14.9004 a 3.3054228,3.3054228 0 0 0 -0.2637,1.248 l -0.246,17.5859 a 3.3054228,3.3054228 0 0 0 0.4902,1.7793 l 12.0957,19.6524 a 3.3054228,3.3054228 0 0 0 2.7695,1.5722 l 16.586,0.2208 a 3.3054228,3.3054228 0 0 0 3.3105,-3.7911 l 2.293,-0.4179 13.3906,0.2812 a 3.3054228,3.3054228 0 0 0 0.027,0 l 16.0293,0.1992 a 3.3054228,3.3054228 0 0 0 3.252,-2.5214 l 4.0371,-16.5704 2.3281,-8.1523 a 3.3054228,3.3054228 0 0 0 0.045,-1.6445 l -2.2247,-9.7383 a 3.3054228,3.3054228 0 0 0 -0.2714,-0.752 l -7.6934,-15.2656 a 3.3054228,3.3054228 0 0 0 -1.1328,-1.2715 l -15.0215,-9.8926 a 3.3054228,3.3054228 0 0 0 -1.9023,-0.5449 z"
       transform="matrix(1.4073988,0,0,1.4073988,-6283.7606,-457.21469)" />
    <path
       style="fill:#808080;stroke:none;stroke-width:1.18192494px;stroke-linecap:butt;stroke-linejoin:miter;stroke-opacity:1"
       d="m 31.677543,1103.5564 30.79331,-5.6213 19.31495,0.4042 22.557647,0.2819 5.70433,-23.4106 0.17183,-25.2664 -10.828447,-21.4851 -21.14111,-13.9223 -34.032445,0.8595 -20.28166,14.7817 -8.937875,20.9693 -0.343657,24.7507 z"
       id="path3284"
       inkscape:connector-curvature="0"
       sodipodi:nodetypes="ccccccccccccc" />
    <path
       style="fill:#ffd42a;stroke:none;stroke-width:1.37503994px;stroke-linecap:butt;stroke-linejoin:miter;stroke-opacity:1"
       d="m 30.811105,1081.7421 18.595816,5.0451 25.632562,-0.3244 19.53893,-4.0332 15.469367,-7.219 3.30292,-11.5613 -3.13109,-13.7051 -10.828447,-21.4851 -21.14111,-13.9223 -34.032445,0.8595 -20.28166,14.7817 -8.937875,20.9693 -0.343657,24.7507 z"
       id="path3176"
       inkscape:connector-curvature="0"
       sodipodi:nodetypes="cccccccccccccc" />
    <path
       style="fill:#e6e6e6;stroke:none;stroke-width:1.37503994px;stroke-linecap:butt;stroke-linejoin:miter;stroke-opacity:1"
       d="m 14.654416,1075.898 0.343657,-24.7507 8.937875,-20.9693 20.28166,-14.7817 34.032445,-0.8595 21.14111,13.9223 10.828447,21.4851 -0.17183,25.2664 -12.741377,27.4568 12.741377,-27.4568 0.17183,-25.2664 -9.89449,-14.8074 -10.897067,-3.0924 -15.17492,-1.2821 -20.601412,6.0683 -10.828299,10.8284 -0.687624,13.4067 12.884187,42.8013 -23.342442,-0.3108 z"
       id="path3174"
       inkscape:connector-curvature="0"
       sodipodi:nodetypes="cccccccccccccccccccc" />
    <path
       style="fill:#ffffff;stroke:none;stroke-width:1.37503994px;stroke-linecap:butt;stroke-linejoin:miter;stroke-opacity:1"
       d="m 14.654416,1075.898 4.296954,-23.3758 9.45336,-19.766 -4.468782,-2.5782 -8.937875,20.9693 z"
       id="path3204"
       inkscape:connector-curvature="0" />
    <path
       style="fill:#3771c8;stroke:none;stroke-width:1.40739882px;stroke-linecap:butt;stroke-linejoin:miter;stroke-opacity:1"
       d="m 67.981472,1014.7956 -23.763554,0.6019 -7.223936,5.2641 10.422709,5.1668 6.235186,11.0019 20.602496,-6.0666 15.17337,1.2808 8.53524,2.408 -14.99766,-13.3043 z"
       id="path2402"
       inkscape:connector-curvature="0"
       sodipodi:nodetypes="cccccccccc" />
    <path
       style="fill:#f2f2f2;stroke:none;stroke-width:1.37503994px;stroke-linecap:butt;stroke-linejoin:miter;stroke-opacity:1"
       d="m 28.40473,1032.7562 17.016143,-13.2347 32.82918,-4.9847 -34.032445,0.8595 -20.28166,14.7817 z"
       id="path3206"
       inkscape:connector-curvature="0" />
    <path
       style="fill:#ffe680;stroke:none;stroke-width:1.40739882px;stroke-linecap:butt;stroke-linejoin:miter;stroke-opacity:1"
       d="m 100.32512,1035.1368 9.89449,14.8074 -8.89752,5.9971 -20.898657,4.4784 -38.287635,0.6463 0.687624,-13.4065 10.828455,-10.8289 20.601256,-6.0679 15.17461,1.2823 z"
       id="path2453"
       inkscape:connector-curvature="0"
       sodipodi:nodetypes="cccccccccc" />
  </g>
</svg>
