<?xml version="1.0" encoding="UTF-8" standalone="no"?>
<!-- Created with Inkscape (http://www.inkscape.org/) -->

<svg
   xmlns:dc="http://purl.org/dc/elements/1.1/"
   xmlns:cc="http://creativecommons.org/ns#"
   xmlns:rdf="http://www.w3.org/1999/02/22-rdf-syntax-ns#"
   xmlns:svg="http://www.w3.org/2000/svg"
   xmlns="http://www.w3.org/2000/svg"
   xmlns:sodipodi="http://sodipodi.sourceforge.net/DTD/sodipodi-0.dtd"
   xmlns:inkscape="http://www.inkscape.org/namespaces/inkscape"
   width="128"
   height="128"
   viewBox="0 0 128 128.00001"
   version="1.1"
   id="svg6294"
   inkscape:version="0.92.3 (2405546, 2018-03-11)"
   sodipodi:docname="linux.svg">
  <defs
     id="defs6288" />
  <sodipodi:namedview
     id="base"
     pagecolor="#ffffff"
     bordercolor="#666666"
     borderopacity="1.0"
     inkscape:pageopacity="0.0"
     inkscape:pageshadow="2"
     inkscape:zoom="2.1832557"
     inkscape:cx="15.209465"
     inkscape:cy="58.590742"
     inkscape:document-units="px"
     inkscape:current-layer="layer1"
     showgrid="false"
     units="px"
     inkscape:window-width="1366"
     inkscape:window-height="713"
     inkscape:window-x="0"
     inkscape:window-y="27"
     inkscape:window-maximized="1" />
  <metadata
     id="metadata6291">
    <rdf:RDF>
      <cc:Work
         rdf:about="">
        <dc:format>image/svg+xml</dc:format>
        <dc:type
           rdf:resource="http://purl.org/dc/dcmitype/StillImage" />
        <dc:title></dc:title>
      </cc:Work>
    </rdf:RDF>
  </metadata>
  <g
     inkscape:label="Layer 1"
     inkscape:groupmode="layer"
     id="layer1"
     transform="translate(0,-994.51965)">
    <path
       transform="matrix(2.0137348,0,0,2.0137348,-12460.208,-1111.0225)"
       sodipodi:type="inkscape:offset"
       inkscape:radius="2.1501827"
       inkscape:original="M 6225.2324 1052.707 L 6216.877 1053.0781 L 6213.7305 1057.8652 L 6213.8555 1066.6934 L 6205.1523 1084.5352 L 6206.0469 1086.7734 L 6204.0449 1088.7754 L 6200.9688 1090.3125 L 6200.4414 1095.3691 L 6199.6934 1097.5234 L 6200.8359 1099.1934 L 6211.2539 1101.7871 L 6213.8047 1101.5234 L 6214.6035 1099.8477 L 6216.3418 1099.9531 L 6221.2539 1099.207 L 6224.3613 1099.5195 L 6226.8047 1099.498 L 6228.3828 1102.0371 L 6232.4434 1101.6348 L 6234.6191 1099.207 L 6237.7266 1097.5938 L 6241.0215 1095.541 L 6239.0957 1091.5605 L 6238.1348 1088.3145 L 6236.9707 1087.832 L 6237.7891 1085.2227 L 6229.0859 1066.8203 L 6228.2773 1056.8105 L 6225.2324 1052.707 z "
       style="fill:#000000;fill-opacity:1;stroke:none;stroke-width:0.99469018px;stroke-linecap:butt;stroke-linejoin:miter;stroke-opacity:1"
       id="path3593-1"
       d="m 6225.1367,1050.5586 -8.3555,0.3711 a 2.1503977,2.1503977 0 0 0 -1.7011,0.9668 l -3.1465,4.7871 a 2.1503977,2.1503977 0 0 0 -0.3535,1.2129 l 0.1191,8.3144 -8.4785,17.3809 a 2.1503977,2.1503977 0 0 0 -0.064,1.7422 l 0.3672,0.9219 -0.7519,0.7519 -2.7637,1.3809 a 2.1503977,2.1503977 0 0 0 -1.1777,1.7011 l -0.502,4.8086 -0.666,1.92 a 2.1503977,2.1503977 0 0 0 0.2559,1.9199 l 1.1425,1.6699 a 2.1503977,2.1503977 0 0 0 1.2559,0.8711 l 10.418,2.5937 a 2.1503977,2.1503977 0 0 0 0.7402,0.053 l 2.5508,-0.2637 a 2.1503977,2.1503977 0 0 0 1.7207,-1.2129 l 0.1738,-0.3672 0.291,0.018 a 2.1503977,2.1503977 0 0 0 0.4532,-0.022 l 4.6445,-0.7051 2.8379,0.2852 a 2.1503977,2.1503977 0 0 0 0.2344,0.012 l 1.2343,-0.012 0.9414,1.5137 a 2.1503977,2.1503977 0 0 0 2.0391,1.0058 l 4.0605,-0.4023 a 2.1503977,2.1503977 0 0 0 1.3887,-0.7051 l 1.9141,-2.1367 2.7578,-1.4316 a 2.1503977,2.1503977 0 0 0 0.1465,-0.084 l 3.2949,-2.0528 a 2.1503977,2.1503977 0 0 0 0.7988,-2.7597 l -1.8496,-3.8243 -0.9101,-3.0761 a 2.1503977,2.1503977 0 0 0 -1.2383,-1.377 l 0.6523,0.2715 0.2285,-0.7344 a 2.1503977,2.1503977 0 0 0 -0.1074,-1.5625 l -8.5351,-18.0468 -0.7774,-9.6192 a 2.1503977,2.1503977 0 0 0 -0.416,-1.1074 l -3.0449,-4.1035 a 2.1503977,2.1503977 0 0 0 -1.8223,-0.8672 z" />
    <path
       style="fill:#3d3d3d;fill-opacity:1;stroke:none;stroke-width:2.00304222px;stroke-linecap:butt;stroke-linejoin:miter;stroke-opacity:1"
       d="m 58.932797,1009.5994 -6.334203,9.6421 0.250307,17.7769 -17.52654,35.9294 12.143223,30.4213 20.280927,-0.8764 19.905165,0.5013 10.766634,-20.6561 2.62893,-8.0125 -17.52654,-37.0561 -1.627903,-20.1555 -6.13444,-8.2623 z"
       id="path3593"
       inkscape:connector-curvature="0"
       sodipodi:nodetypes="ccccccccccccc" />
    <path
       style="fill:#ececec;fill-opacity:1;stroke:none;stroke-width:2.00304222px;stroke-linecap:butt;stroke-linejoin:miter;stroke-opacity:1"
       d="m 65.367888,1030.6338 0.250307,-3.5677 2.253369,-4.069 4.381686,-0.6883 2.691558,2.6914 0.625868,4.7574 -1.752553,3.9433 z"
       id="path3598"
       inkscape:connector-curvature="0" />
    <path
       style="fill:#ececec;fill-opacity:1;stroke:none;stroke-width:2.00304222px;stroke-linecap:butt;stroke-linejoin:miter;stroke-opacity:1"
       d="m 57.067474,1033.9583 -2.466019,-3.8877 0.375561,-4.5068 2.003062,-2.5038 2.941866,0.6258 1.502246,2.9419 0.43839,3.7554 z"
       id="path3600"
       inkscape:connector-curvature="0"
       sodipodi:nodetypes="cccccccc" />
    <path
       style="fill:#ececec;stroke:none;stroke-width:2.00304222px;stroke-linecap:butt;stroke-linejoin:miter;stroke-opacity:1"
       d="m 51.847068,1091.9768 14.021636,7.3864 18.027155,-8.8888 1.377193,-13.0194 1.126685,-4.5072 2.253373,-1.2517 -8.137104,-18.9035 -4.538152,-15.3987 -20.625276,2.1285 -1.00143,8.3877 -9.138732,26.4149 9.890056,11.8931 0.625869,4.632 z"
       id="path3607"
       inkscape:connector-curvature="0"
       sodipodi:nodetypes="cccccccccccccc" />
    <path
       style="fill:#4d4d4d;stroke:none;stroke-width:2.00304222px;stroke-linecap:butt;stroke-linejoin:miter;stroke-opacity:1"
       d="m 39.591881,1072.4963 7.873703,30.8728 -12.143827,-30.4213 z"
       id="path3667"
       inkscape:connector-curvature="0"
       sodipodi:nodetypes="cccc" />
    <path
       style="fill:#1a1a1a;stroke:none;stroke-width:2.00304222px;stroke-linecap:butt;stroke-linejoin:miter;stroke-opacity:1"
       d="m 47.465584,1103.3691 10.390872,0.6259 9.890055,-1.5023 6.259494,0.6261 13.645671,-0.1228 -13.019803,-3.3187 -4.569567,-0.6883 -11.705034,2.3783 z"
       id="path3673"
       inkscape:connector-curvature="0" />
    <path
       style="fill:#ffcc00;stroke:none;stroke-width:2.00304222px;stroke-linecap:butt;stroke-linejoin:miter;stroke-opacity:1"
       d="m 52.74318,1107.1557 3.893154,-8.1574 -13.010942,-19.7273 -5.842449,-2.4788 -4.6918,4.6918 -6.196665,3.098 -1.062044,10.1804 -1.505065,4.3376 2.301497,3.3641 20.979895,5.2227 z"
       id="path3611"
       inkscape:connector-curvature="0"
       sodipodi:nodetypes="ccccccccccc" />
    <path
       style="fill:#1a1a1a;stroke:none;stroke-width:2.00304222px;stroke-linecap:butt;stroke-linejoin:miter;stroke-opacity:1"
       d="m 101.04724,1074.325 -6.08994,-1.1267 1.87036,5.3201 -1.66455,14.5851 z"
       id="path3671"
       inkscape:connector-curvature="0"
       sodipodi:nodetypes="ccccc" />
    <path
       style="fill:#ffcc00;stroke:none;stroke-width:2.00304222px;stroke-linecap:butt;stroke-linejoin:miter;stroke-opacity:1"
       d="m 77.750947,1101.1804 3.496649,-19.962 4.025456,-3.7634 1.6275,5.5083 4.040358,0.3796 5.88675,-4.8245 4.91311,2.0359 1.9352,6.5402 3.88087,8.0121 -12.89475,7.3861 -4.38148,4.8827 -8.178183,0.81 z"
       id="path3613"
       inkscape:connector-curvature="0"
       sodipodi:nodetypes="ccccccccccccc" />
    <path
       style="fill:#1a1a1a;fill-opacity:1;stroke:none;stroke-width:2.00304222px;stroke-linecap:butt;stroke-linejoin:miter;stroke-opacity:1"
       d="m 67.361083,1031.0996 0.71407,-3.2202 1.001632,-1.5646 1.627299,0.024 1.126886,1.4195 0.189291,2.3319 -0.996598,2.3849 z"
       id="path3615"
       inkscape:connector-curvature="0"
       sodipodi:nodetypes="cccccccc" />
    <path
       style="fill:#1a1a1a;fill-opacity:1;stroke:none;stroke-width:2.00304222px;stroke-linecap:butt;stroke-linejoin:miter;stroke-opacity:1"
       d="m 58.099514,1032.9859 -1.417267,-2.1368 -0.2199,-2.0141 0.708231,-2.0138 1.350007,0.202 1.017943,1.6146 0.287562,3.1648 z"
       id="path3617"
       inkscape:connector-curvature="0"
       sodipodi:nodetypes="cccccccc" />
    <path
       style="fill:#ffcc00;fill-opacity:1;stroke:none;stroke-width:2.00304222px;stroke-linecap:butt;stroke-linejoin:miter;stroke-opacity:1"
       d="m 53.568812,1036.9245 5.132808,-4.5693 4.287443,-2.7856 h 2.222358 l 10.01531,4.7886 0.751123,3.0357 -3.348841,2.9421 -5.508572,3.0671 -5.88373,0.5008 -5.884133,-4.3815 z"
       id="path3604"
       inkscape:connector-curvature="0"
       sodipodi:nodetypes="ccccccccccc" />
    <path
       style="fill:#4d4d4d;stroke:none;stroke-width:2.00304222px;stroke-linecap:butt;stroke-linejoin:miter;stroke-opacity:1"
       d="m 52.848901,1037.0184 2.579796,-16.5545 6.311246,-6.9269 -2.807146,-3.9376 -6.334203,9.6421 z"
       id="path3661"
       inkscape:connector-curvature="0"
       sodipodi:nodetypes="cccccc" />
    <path
       style="fill:#666666;stroke:none;stroke-width:2.00304222px;stroke-linecap:butt;stroke-linejoin:miter;stroke-opacity:1"
       d="m 61.739943,1013.537 14.018414,-4.6855 -16.82556,0.7479 z"
       id="path3663"
       inkscape:connector-curvature="0"
       sodipodi:nodetypes="cccc" />
    <path
       style="fill:#666666;stroke:none;stroke-width:2.00304222px;stroke-linecap:butt;stroke-linejoin:miter;stroke-opacity:1"
       d="m 52.848901,1037.0184 -13.25702,35.4779 -4.26952,0.4515 z"
       id="path3665"
       inkscape:connector-curvature="0"
       sodipodi:nodetypes="cccc" />
    <path
       style="fill:#1a1a1a;fill-opacity:1;stroke:none;stroke-width:2.00304222px;stroke-linecap:butt;stroke-linejoin:miter;stroke-opacity:1"
       d="m 86.900552,1082.9633 3.634788,-3.1007 4.42196,-6.6643 1.87036,5.3201 -5.88675,4.8245 z"
       id="path3669"
       inkscape:connector-curvature="0"
       sodipodi:nodetypes="cccccc" />
    <path
       style="fill:#aa8800;stroke:none;stroke-width:2.00304222px;stroke-linecap:butt;stroke-linejoin:miter;stroke-opacity:1"
       d="m 61.236711,1043.9039 5.648526,-2.1263 5.612883,-2.8089 0.130893,1.3673 -5.508572,3.0671 z"
       id="path3675"
       inkscape:connector-curvature="0"
       sodipodi:nodetypes="cccccc" />
    <path
       style="fill:#d4aa00;stroke:none;stroke-width:2.00304222px;stroke-linecap:butt;stroke-linejoin:miter;stroke-opacity:1"
       d="m 72.49812,1038.9687 3.479734,-1.5748 -3.348841,2.9421 z"
       id="path3677"
       inkscape:connector-curvature="0"
       sodipodi:nodetypes="cccc" />
    <path
       style="fill:#ffdd55;stroke:none;stroke-width:2.00304222px;stroke-linecap:butt;stroke-linejoin:miter;stroke-opacity:1"
       d="m 53.568812,1036.9245 5.132808,-4.5693 4.287443,-2.7856 h 2.222358 l -3.394553,1.7662 z"
       id="path3679"
       inkscape:connector-curvature="0"
       sodipodi:nodetypes="cccccc" />
    <path
       style="fill:#d4aa00;stroke:none;stroke-width:2.00304222px;stroke-linecap:butt;stroke-linejoin:miter;stroke-opacity:1"
       d="m 55.737805,1036.5262 3.761254,2.3565 4.818062,0.046 7.103047,-2.2687 -6.79555,3.7303 -5.112268,-0.099 z"
       id="path3681"
       inkscape:connector-curvature="0"
       sodipodi:nodetypes="ccccccc" />
    <path
       style="fill:#4d4d4d;stroke:none;stroke-width:2.00304222px;stroke-linecap:butt;stroke-linejoin:miter;stroke-opacity:1"
       d="m 85.273052,1077.455 3.386298,-4.0738 4.70106,-4.5098 -6.960673,4.0764 z"
       id="path3687"
       inkscape:connector-curvature="0"
       sodipodi:nodetypes="ccccc" />
    <path
       style="fill:#ffdd55;stroke:none;stroke-width:2.00304222px;stroke-linecap:butt;stroke-linejoin:miter;stroke-opacity:1"
       d="m 24.327369,1099.1 3.098332,-3.2755 -1.593267,-1.0621 z"
       id="path3689"
       inkscape:connector-curvature="0" />
    <path
       style="fill:#ffd42a;stroke:none;stroke-width:2.00304222px;stroke-linecap:butt;stroke-linejoin:miter;stroke-opacity:1"
       d="m 25.832434,1094.7624 1.062044,-10.1804 6.196665,-3.098 1.239453,2.2129 -5.577038,2.3903 z"
       id="path3691"
       inkscape:connector-curvature="0"
       sodipodi:nodetypes="cccccc" />
    <path
       style="fill:#ffdd55;stroke:none;stroke-width:2.00304222px;stroke-linecap:butt;stroke-linejoin:miter;stroke-opacity:1"
       d="m 33.091143,1081.484 4.6918,-4.6918 -3.452347,6.9047 z"
       id="path3693"
       inkscape:connector-curvature="0" />
    <path
       style="fill:#aa8800;stroke:none;stroke-width:2.00304222px;stroke-linecap:butt;stroke-linejoin:miter;stroke-opacity:1"
       d="m 47.608761,1107.6868 5.134419,-0.5311 -1.770475,-2.036 -3.46161,0.857 -20.882229,-3.5126 z"
       id="path3695"
       inkscape:connector-curvature="0"
       sodipodi:nodetypes="cccccc" />
    <path
       style="fill:#d4aa00;stroke:none;stroke-width:2.00304222px;stroke-linecap:butt;stroke-linejoin:miter;stroke-opacity:1"
       d="m 50.972705,1105.1197 5.663629,-6.1214 -3.893154,8.1574 z"
       id="path3697"
       inkscape:connector-curvature="0"
       sodipodi:nodetypes="cccc" />
    <path
       style="fill:#aa8800;stroke:none;stroke-width:2.00304222px;stroke-linecap:butt;stroke-linejoin:miter;stroke-opacity:1"
       d="m 82.102427,1108.1854 6.846493,-2.6233 3.98357,-5.1342 1.7296,2.0648 -4.38148,4.8827 z"
       id="path3699"
       inkscape:connector-curvature="0"
       sodipodi:nodetypes="cccccc" />
    <path
       style="fill:#d4aa00;stroke:none;stroke-width:2.00304222px;stroke-linecap:butt;stroke-linejoin:miter;stroke-opacity:1"
       d="m 92.93249,1100.4279 12.39333,-5.6655 -1.64985,-7.6679 3.88087,8.0121 -12.89475,7.3861 z"
       id="path3701"
       inkscape:connector-curvature="0"
       sodipodi:nodetypes="cccccc" />
    <path
       style="fill:#ffd42a;stroke:none;stroke-width:2.00304222px;stroke-linecap:butt;stroke-linejoin:miter;stroke-opacity:1"
       d="m 77.750947,1101.1804 5.644297,-14.3364 0.750922,-4.7574 -2.89857,-0.8682 -0.486921,5.0016 z"
       id="path3703"
       inkscape:connector-curvature="0" />
    <path
       style="fill:#ffdd55;stroke:none;stroke-width:2.00304222px;stroke-linecap:butt;stroke-linejoin:miter;stroke-opacity:1"
       d="m 84.146166,1082.0866 1.572928,-2.9757 -0.446042,-1.6559 -4.025456,3.7634 z"
       id="path3705"
       inkscape:connector-curvature="0"
       sodipodi:nodetypes="ccccc" />
  </g>
</svg>
