<?xml version="1.0" encoding="UTF-8" standalone="no"?>
<!-- Created with Inkscape (http://www.inkscape.org/) -->

<svg
   xmlns:dc="http://purl.org/dc/elements/1.1/"
   xmlns:cc="http://creativecommons.org/ns#"
   xmlns:rdf="http://www.w3.org/1999/02/22-rdf-syntax-ns#"
   xmlns:svg="http://www.w3.org/2000/svg"
   xmlns="http://www.w3.org/2000/svg"
   xmlns:sodipodi="http://sodipodi.sourceforge.net/DTD/sodipodi-0.dtd"
   xmlns:inkscape="http://www.inkscape.org/namespaces/inkscape"
   width="128"
   height="128"
   viewBox="0 0 128 128.00001"
   version="1.1"
   id="svg6294"
   inkscape:version="0.92.3 (2405546, 2018-03-11)"
   sodipodi:docname="android.svg">
  <defs
     id="defs6288" />
  <sodipodi:namedview
     id="base"
     pagecolor="#ffffff"
     bordercolor="#666666"
     borderopacity="1.0"
     inkscape:pageopacity="0.0"
     inkscape:pageshadow="2"
     inkscape:zoom="2.1832557"
     inkscape:cx="15.209465"
     inkscape:cy="58.590742"
     inkscape:document-units="px"
     inkscape:current-layer="layer1"
     showgrid="false"
     units="px"
     inkscape:window-width="1366"
     inkscape:window-height="713"
     inkscape:window-x="0"
     inkscape:window-y="27"
     inkscape:window-maximized="1" />
  <metadata
     id="metadata6291">
    <rdf:RDF>
      <cc:Work
         rdf:about="">
        <dc:format>image/svg+xml</dc:format>
        <dc:type
           rdf:resource="http://purl.org/dc/dcmitype/StillImage" />
        <dc:title></dc:title>
      </cc:Work>
    </rdf:RDF>
  </metadata>
  <g
     inkscape:label="Layer 1"
     inkscape:groupmode="layer"
     id="layer1"
     transform="translate(0,-994.51965)">
    <path
       sodipodi:type="inkscape:offset"
       inkscape:radius="43.514374"
       inkscape:original="M 7817.7598 -420.99219 L 7806.9648 -417.95312 L 7766.8516 -340.23438 L 7722.7227 -363.53906 L 7570.252 -356.91016 L 7535.0273 -335.44531 L 7489.0488 -413.57031 L 7476.9395 -414.15625 L 7472.6426 -406.34375 L 7520.043 -326.31445 L 7499.5391 -313.82031 L 7434.3555 -233.16602 L 7407.8379 -108.31836 L 7893.9727 -119.36719 L 7888.4512 -212.17383 L 7821.0527 -311.61133 L 7782.832 -331.79492 L 7820.8848 -410.05469 L 7817.7598 -420.99219 z M 7896.1855 -95.060547 L 7401.207 -78.597656 L 7415.5723 402.125 L 7513.3809 400.54492 L 7532.627 656.34375 L 7541.6641 666.46289 L 7577.1387 673.19141 L 7604.584 666.19727 L 7609.5137 653.71094 L 7592.334 399.26758 L 7645.5684 398.4082 L 7768.9609 396.41406 L 7760.4941 645.14258 L 7768.3926 655.90039 L 7802.9863 665.26953 L 7831.084 660.36914 L 7837.3555 648.30469 L 7847.918 395.13672 L 7924.9102 393.89258 L 7896.1855 -95.060547 z M 7985.1055 -90.326172 L 7959.4102 -84.945312 L 7945.6562 -60.064453 L 7978.2051 322.35547 L 7987.5176 334.33008 L 8023.1641 341.62891 L 8050.4141 332.59375 L 8055.0059 317.45508 L 8024.3887 -71.603516 L 8014.2988 -83.185547 L 7985.1055 -90.326172 z M 7318.0273 -68.341797 L 7291.9141 -65.669922 L 7275.6348 -42.361328 L 7268.1094 341.36719 L 7276.123 354.24805 L 7310.8105 365.22656 L 7338.8555 359.08398 L 7345.002 344.50781 L 7355.1406 -45.623047 L 7346.3184 -58.195312 L 7318.0273 -68.341797 z "
       style="fill:#000000;fill-opacity:1;stroke:none;stroke-width:0.91143268px;stroke-linecap:butt;stroke-linejoin:miter;stroke-opacity:1"
       id="path3156-0-6-5-6"
       d="m 7817.4258,-464.50391 a 43.518725,43.518725 0 0 0 -11.457,1.625 l -10.7969,3.03907 a 43.518725,43.518725 0 0 0 -26.875,21.92968 l -19.9668,38.68555 -5.2871,-2.79297 a 43.518725,43.518725 0 0 0 -22.211,-4.99414 l -152.4707,6.62891 a 43.518725,43.518725 0 0 0 -18.1679,4.91406 l -23.6426,-40.17187 a 43.518725,43.518725 0 0 0 -35.3985,-21.39258 l -12.1093,-0.58594 a 43.518725,43.518725 0 0 0 -40.2305,22.49219 l -4.2969,7.8125 a 43.518725,43.518725 0 0 0 0.6875,43.14648 l 25.5,43.05469 16.1934,-9.86524 a 43.518725,43.518725 0 0 0 -11.2012,9.80664 l -65.1836,80.6543 a 43.518725,43.518725 0 0 0 -8.7207,18.31055 l -26.5176,124.84765 a 43.518725,43.518725 0 0 0 -0.4785,15.03321 43.518725,43.518725 0 0 0 -2.2168,3.812498 43.518725,43.518725 0 0 0 -1.5703,-0.640625 l -28.291,-10.146483 a 43.518725,43.518725 0 0 0 -19.1191,-2.33008 l -26.1133,2.67188 a 43.518725,43.518725 0 0 0 -31.2442,18.373042 l -16.2793,23.308594 a 43.518725,43.518725 0 0 0 -7.832,24.0625 l -7.5254,383.728514 a 43.518725,43.518725 0 0 0 6.5586,23.83985 l 8.0137,12.88086 a 43.518725,43.518725 0 0 0 23.8164,18.5 l 34.6875,10.97851 a 43.518725,43.518725 0 0 0 22.4414,1.01953 l 28.0449,-6.14258 a 43.518725,43.518725 0 0 0 23.4414,-13.93359 l 0.4707,15.76758 a 43.518725,43.518725 0 0 0 44.1973,42.20898 l 56.791,-0.91601 16.168,214.89258 a 43.518725,43.518725 0 0 0 10.9375,25.71874 l 9.0371,10.11915 a 43.518725,43.518725 0 0 0 24.3457,13.76757 l 35.4746,6.72852 a 43.518725,43.518725 0 0 0 18.8555,-0.58594 l 27.4453,-6.99414 a 43.518725,43.518725 0 0 0 29.7285,-26.18555 l 4.9297,-12.48632 a 43.518725,43.518725 0 0 0 2.9414,-18.91211 l -14.0938,-208.74414 7.4356,-0.11914 77.6445,-1.25391 -6.9101,203 a 43.518725,43.518725 0 0 0 8.4121,27.23242 l 7.8984,10.75781 a 43.518725,43.518725 0 0 0 23.7012,16.25 l 34.5937,9.36914 a 43.518725,43.518725 0 0 0 18.8516,0.86524 l 28.0976,-4.90039 a 43.518725,43.518725 0 0 0 31.1329,-22.79688 l 6.2714,-12.06445 a 43.518725,43.518725 0 0 0 4.8672,-18.25586 l 8.8516,-212.13672 35.9297,-0.58203 a 43.518725,43.518725 0 0 0 42.7363,-46.06055 l -1.0898,-18.54296 a 43.518725,43.518725 0 0 0 11.5293,4.16406 l 35.6464,7.29883 a 43.518725,43.518725 0 0 0 22.4239,-1.32813 l 27.25,-9.03516 a 43.518725,43.518725 0 0 0 27.9453,-28.67187 l 4.5918,-15.13867 a 43.518725,43.518725 0 0 0 1.7402,-16.04492 l -30.6172,-389.058598 a 43.518725,43.518725 0 0 0 -10.5703,-25.169922 l -10.0898,-11.58203 a 43.518725,43.518725 0 0 0 -22.4727,-13.68359 l -29.1933,-7.14063 a 43.518725,43.518725 0 0 0 -19.2559,-0.32227 l -25.6953,5.38086 a 43.518725,43.518725 0 0 0 -13.1094,5.11133 l -5.4941,-92.33398 a 43.518725,43.518725 0 0 0 -7.418,-21.83008 l -67.3984,-99.4375 a 43.518725,43.518725 0 0 0 -15.6993,-14.06445 l -1.0019,-0.5293 19.6465,-40.4082 a 43.518725,43.518725 0 0 0 2.707,-30.98243 l -3.125,-10.9375 a 43.518725,43.518725 0 0 0 -42.1738,-31.55664 z"
       transform="matrix(0.09143163,0,0,0.09143163,-636.55651,1046.9901)" />
    <path
       style="fill:#71c837;fill-opacity:1;stroke:none;stroke-width:0.08333376px;stroke-linecap:butt;stroke-linejoin:miter;stroke-opacity:1"
       d="m 59.193677,1106.7598 -0.450676,1.1418 -2.509422,0.6393 -3.243493,-0.6151 -0.826371,-0.9253 -2.188831,-29.0942 1.308732,-1.8657 2.359459,-0.3647 2.654268,0.592 0.898007,0.8966 z"
       id="path3156-0-6-5"
       inkscape:connector-curvature="0"
       inkscape:transform-center-x="-0.37540397"
       inkscape:transform-center-y="0.61908334" />
    <path
       style="fill:#447821;fill-opacity:1;stroke:none;stroke-width:0.08333376px;stroke-linecap:butt;stroke-linejoin:miter;stroke-opacity:1"
       d="m 59.193677,1106.7598 -1.998327,-29.5953 0.795867,28.9317 -0.477638,0.7364 -1.550799,0.3893 0.270405,1.319 2.509619,-0.6393 z"
       id="path3234-6-1-4"
       inkscape:connector-curvature="0"
       sodipodi:nodetypes="cccccccc"
       inkscape:transform-center-x="-3.4000531"
       inkscape:transform-center-y="16.161014" />
    <path
       style="fill:#5aa02c;fill-opacity:1;stroke:none;stroke-width:0.08333376px;stroke-linecap:butt;stroke-linejoin:miter;stroke-opacity:1"
       d="m 55.96278,1107.2219 -2.972694,0.7038 3.243493,0.6152 z"
       id="path3236-3-5-7"
       inkscape:connector-curvature="0"
       inkscape:transform-center-x="-0.40295603"
       inkscape:transform-center-y="16.653435"
       sodipodi:nodetypes="cccc" />
    <path
       style="fill:#71c837;fill-opacity:1;stroke:none;stroke-width:0.08333376px;stroke-linecap:butt;stroke-linejoin:miter;stroke-opacity:1"
       d="m 80.025557,1106.2654 -0.573284,1.1031 -2.56925,0.4481 -3.162607,-0.8567 -0.72246,-0.9836 0.991882,-29.1395 1.506716,-1.7594 2.389766,-0.185 2.578499,0.7896 0.796654,0.9606 z"
       id="path3156-0-6"
       inkscape:connector-curvature="0" />
    <path
       style="fill:#447821;fill-opacity:1;stroke:none;stroke-width:0.08333376px;stroke-linecap:butt;stroke-linejoin:miter;stroke-opacity:1"
       d="m 81.261473,1076.6426 -2.533431,28.6392 -0.505191,0.7715 -1.553555,0.5229 0.21235,1.2392 2.569249,-0.4479 0.574662,-1.1021 z"
       id="path3234-6-1"
       inkscape:connector-curvature="0"
       sodipodi:nodetypes="cccccccc" />
    <path
       style="fill:#5aa02c;fill-opacity:1;stroke:none;stroke-width:0.08333376px;stroke-linecap:butt;stroke-linejoin:miter;stroke-opacity:1"
       d="m 76.669296,1106.5762 -2.94888,0.3824 3.162607,0.8564 z"
       id="path3236-3-5"
       inkscape:connector-curvature="0"
       sodipodi:nodetypes="cccc" />
    <path
       style="fill:#71c837;stroke:none;stroke-width:0.111609px;stroke-linecap:butt;stroke-linejoin:miter;stroke-opacity:1"
       d="m 88.03087,1083.0042 -2.626519,-44.7057 -45.256381,1.5051 1.313259,43.9532 z"
       id="path3130"
       inkscape:connector-curvature="0" />
    <path
       style="fill:#5aa02c;stroke:none;stroke-width:0.09143161px;stroke-linecap:butt;stroke-linejoin:miter;stroke-opacity:1"
       d="m 74.733946,1017.284 3.785879,-7.7861 -0.285756,-0.9999 -0.987159,0.2778 -4.040541,7.829 z"
       id="path3151"
       inkscape:connector-curvature="0" />
    <path
       style="fill:#5aa02c;stroke:none;stroke-width:0.09143161px;stroke-linecap:butt;stroke-linejoin:miter;stroke-opacity:1"
       d="m 52.751169,1016.9447 -4.57171,-7.7682 -1.107011,-0.053 -0.393013,0.7142 4.643148,7.8398 z"
       id="path3153"
       inkscape:connector-curvature="0" />
    <path
       style="fill:#71c837;stroke:none;stroke-width:0.09143161px;stroke-linecap:butt;stroke-linejoin:miter;stroke-opacity:1"
       d="m 85.202235,1036.076 -44.448312,1.0104 2.4246,-11.4153 5.960149,-7.3742 6.465141,-3.9399 13.940662,-0.6062 8.990701,4.7479 6.162065,9.0918 z"
       id="path3132"
       inkscape:connector-curvature="0" />
    <path
       style="fill:#ffffff;stroke:none;stroke-width:0.09143161px;stroke-linecap:butt;stroke-linejoin:miter;stroke-opacity:1"
       d="m 72.555348,1025.8557 -1.142828,1.8928 -1.893038,-1.1784 -0.249939,-1.6431 1.321525,-1.1785 1.383518,0.7587 z"
       id="path3134"
       inkscape:connector-curvature="0"
       sodipodi:nodetypes="ccccccc" />
    <path
       style="fill:#ffffff;stroke:none;stroke-width:0.09143161px;stroke-linecap:butt;stroke-linejoin:miter;stroke-opacity:1"
       d="m 57.517909,1026.0661 -1.142829,1.8928 -1.892841,-1.1784 -0.250136,-1.6431 1.321525,-1.1785 1.383518,0.7587 z"
       id="path3134-9"
       inkscape:connector-curvature="0"
       sodipodi:nodetypes="ccccccc" />
    <path
       style="fill:#71c837;fill-opacity:1;stroke:none;stroke-width:0.09143161px;stroke-linecap:butt;stroke-linejoin:miter;stroke-opacity:1"
       d="m 35.008881,1078.4888 -0.56187,1.3327 -2.564132,0.5617 -3.171661,-1.0037 -0.732496,-1.1778 0.688019,-35.0849 1.488217,-2.1312 2.387798,-0.2442 2.586568,0.9277 0.806887,1.1494 z"
       id="path3156"
       inkscape:connector-curvature="0" />
    <path
       style="fill:#447821;fill-opacity:1;stroke:none;stroke-width:0.111609px;stroke-linecap:butt;stroke-linejoin:miter;stroke-opacity:1"
       d="m 85.404351,1038.2985 -1.111144,39.4373 3.737663,5.2684 z"
       id="path3214"
       inkscape:connector-curvature="0" />
    <path
       style="fill:#5aa02c;fill-opacity:1;stroke:none;stroke-width:0.111609px;stroke-linecap:butt;stroke-linejoin:miter;stroke-opacity:1"
       d="m 41.461229,1083.7568 46.569641,-0.7526 -3.737663,-5.2684 z"
       id="path3218"
       inkscape:connector-curvature="0" />
    <path
       style="fill:#aade87;fill-opacity:1;stroke:none;stroke-width:0.111609px;stroke-linecap:butt;stroke-linejoin:miter;stroke-opacity:1"
       d="m 85.404351,1038.2985 -41.482111,4.9535 -3.77427,-3.4484 z"
       id="path3220"
       inkscape:connector-curvature="0"
       sodipodi:nodetypes="cccc" />
    <path
       style="fill:#8dd35f;fill-opacity:1;stroke:none;stroke-width:0.111609px;stroke-linecap:butt;stroke-linejoin:miter;stroke-opacity:1"
       d="m 43.92224,1043.252 -2.461011,40.5048 -1.313259,-43.9532 z"
       id="path3222"
       inkscape:connector-curvature="0"
       sodipodi:nodetypes="cccc" />
    <path
       style="fill:#447821;fill-opacity:1;stroke:none;stroke-width:0.09143161px;stroke-linecap:butt;stroke-linejoin:miter;stroke-opacity:1"
       d="m 84.697241,1027.5905 -1.677343,6.6226 2.182337,1.8629 z"
       id="path3224"
       inkscape:connector-curvature="0" />
    <path
       style="fill:#5aa02c;fill-opacity:1;stroke:none;stroke-width:0.09143161px;stroke-linecap:butt;stroke-linejoin:miter;stroke-opacity:1"
       d="m 83.019898,1034.2131 -42.265975,2.8733 44.448312,-1.0104 z"
       id="path3228"
       inkscape:connector-curvature="0" />
    <path
       style="fill:#aade87;fill-opacity:1;stroke:none;stroke-width:0.09143161px;stroke-linecap:butt;stroke-linejoin:miter;stroke-opacity:1"
       d="m 69.544475,1013.7508 -13.168411,2.4616 -5.500024,3.4287 -1.737368,-1.3442 6.465141,-3.9399 z"
       id="path3230"
       inkscape:connector-curvature="0" />
    <path
       style="fill:#8dd35f;fill-opacity:1;stroke:none;stroke-width:0.09143161px;stroke-linecap:butt;stroke-linejoin:miter;stroke-opacity:1"
       d="m 50.87604,1019.6411 -5.642903,6.7147 -4.479214,10.7306 2.4246,-11.4153 5.960149,-7.3742 z"
       id="path3232"
       inkscape:connector-curvature="0" />
    <path
       style="fill:#5aa02c;fill-opacity:1;stroke:none;stroke-width:0.09143161px;stroke-linecap:butt;stroke-linejoin:miter;stroke-opacity:1"
       d="m 35.008881,1078.4888 0.92733,-35.6703 -2.113259,34.4946 -0.641181,0.5629 -1.646445,0.4912 0.347356,2.016 2.564132,-0.5617 z"
       id="path3234"
       inkscape:connector-curvature="0"
       sodipodi:nodetypes="cccccccc" />
    <path
       style="fill:#447821;fill-opacity:1;stroke:none;stroke-width:0.09143161px;stroke-linecap:butt;stroke-linejoin:miter;stroke-opacity:1"
       d="m 31.535326,1078.3672 -2.824108,1.0121 3.171661,1.0037 z"
       id="path3236"
       inkscape:connector-curvature="0"
       sodipodi:nodetypes="cccc" />
    <path
       style="fill:#aade87;fill-opacity:1;stroke:none;stroke-width:0.09143161px;stroke-linecap:butt;stroke-linejoin:miter;stroke-opacity:1"
       d="m 35.129324,1041.6691 -2.394883,-0.075 -2.243149,0.5765 -0.336334,-1.1852 2.387798,-0.2442 z"
       id="path3246"
       inkscape:connector-curvature="0" />
    <path
       style="fill:#8dd35f;fill-opacity:1;stroke:none;stroke-width:0.09143161px;stroke-linecap:butt;stroke-linejoin:miter;stroke-opacity:1"
       d="m 30.491292,1042.1708 -1.824551,0.946 1.488217,-2.1312 z"
       id="path3248"
       inkscape:connector-curvature="0" />
    <path
       style="fill:#71c837;fill-opacity:1;stroke:none;stroke-width:0.09143161px;stroke-linecap:butt;stroke-linejoin:miter;stroke-opacity:1"
       d="m 99.925576,1076.0156 -0.41978,1.3841 -2.4917,0.826 -3.25905,-0.6676 -0.85136,-1.0948 -2.976236,-34.9654 1.257956,-2.2746 2.34923,-0.492 2.66922,0.6528 0.92241,1.059 z"
       id="path3156-0"
       inkscape:connector-curvature="0" />
    <path
       style="fill:#447821;fill-opacity:1;stroke:none;stroke-width:0.09143161px;stroke-linecap:butt;stroke-linejoin:miter;stroke-opacity:1"
       d="m 99.925576,1076.0156 -2.79931,-35.5725 1.53289,35.0338 -0.4426,0.7815 -1.49452,0.4139 0.29206,1.5534 2.4917,-0.826 z"
       id="path3234-6"
       inkscape:connector-curvature="0"
       sodipodi:nodetypes="cccccccc" />
    <path
       style="fill:#5aa02c;fill-opacity:1;stroke:none;stroke-width:0.09143161px;stroke-linecap:butt;stroke-linejoin:miter;stroke-opacity:1"
       d="m 96.722036,1076.6723 -2.96699,0.8858 3.25905,0.6676 z"
       id="path3236-3"
       inkscape:connector-curvature="0"
       sodipodi:nodetypes="cccc" />
    <path
       style="fill:#8dd35f;fill-opacity:1;stroke:none;stroke-width:0.09143161px;stroke-linecap:butt;stroke-linejoin:miter;stroke-opacity:1"
       d="m 96.203856,1039.3841 -2.38937,0.1771 -2.17073,0.8073 -0.45835,-1.1435 2.34923,-0.492 z"
       id="path3246-2"
       inkscape:connector-curvature="0" />
    <path
       style="fill:#aade87;fill-opacity:1;stroke:none;stroke-width:0.09143161px;stroke-linecap:butt;stroke-linejoin:miter;stroke-opacity:1"
       d="m 91.643756,1040.3669 -1.716306,1.131 1.257956,-2.2746 z"
       id="path3248-0"
       inkscape:connector-curvature="0" />
  </g>
</svg>
