<?xml version="1.0" encoding="UTF-8" standalone="no"?>
<!-- Created with Inkscape (http://www.inkscape.org/) -->

<svg
   xmlns:dc="http://purl.org/dc/elements/1.1/"
   xmlns:cc="http://creativecommons.org/ns#"
   xmlns:rdf="http://www.w3.org/1999/02/22-rdf-syntax-ns#"
   xmlns:svg="http://www.w3.org/2000/svg"
   xmlns="http://www.w3.org/2000/svg"
   xmlns:sodipodi="http://sodipodi.sourceforge.net/DTD/sodipodi-0.dtd"
   xmlns:inkscape="http://www.inkscape.org/namespaces/inkscape"
   width="128"
   height="128"
   viewBox="0 0 128 128.00001"
   version="1.1"
   id="svg6294"
   inkscape:version="0.92.3 (2405546, 2018-03-11)"
   sodipodi:docname="macos.svg">
  <defs
     id="defs6288" />
  <sodipodi:namedview
     id="base"
     pagecolor="#ffffff"
     bordercolor="#666666"
     borderopacity="1.0"
     inkscape:pageopacity="0.0"
     inkscape:pageshadow="2"
     inkscape:zoom="2.1832557"
     inkscape:cx="15.209465"
     inkscape:cy="58.590742"
     inkscape:document-units="px"
     inkscape:current-layer="layer1"
     showgrid="false"
     units="px"
     inkscape:window-width="1366"
     inkscape:window-height="713"
     inkscape:window-x="0"
     inkscape:window-y="27"
     inkscape:window-maximized="1" />
  <metadata
     id="metadata6291">
    <rdf:RDF>
      <cc:Work
         rdf:about="">
        <dc:format>image/svg+xml</dc:format>
        <dc:type
           rdf:resource="http://purl.org/dc/dcmitype/StillImage" />
        <dc:title></dc:title>
      </cc:Work>
    </rdf:RDF>
  </metadata>
  <g
     inkscape:label="Layer 1"
     inkscape:groupmode="layer"
     id="layer1"
     transform="translate(0,-994.51965)">
    <path
       sodipodi:type="inkscape:offset"
       inkscape:radius="2.9612103"
       inkscape:original="M 6118.5957 1049.1562 L 6111.1719 1050.2168 L 6104.2773 1056.7578 L 6106.2207 1062.4141 L 6112.0547 1061.8848 L 6119.6562 1055.5215 L 6118.5957 1049.1562 z M 6093.4941 1065.9512 L 6086.5996 1073.0215 L 6087.4824 1090.6992 L 6091.9023 1098.4766 L 6100.7422 1102.3672 L 6106.0449 1100.7754 L 6110.9941 1102.3672 L 6121.4238 1099.0078 L 6127.4961 1092.0879 L 6121.6621 1095.4453 L 6114.0605 1091.5566 L 6114.2363 1079.7129 L 6120.4238 1073.8789 L 6128.0254 1074.5859 L 6123.7227 1066.127 L 6112.9395 1065.9512 L 6108.5195 1069.3086 L 6103.5703 1066.127 L 6093.4941 1065.9512 z "
       style="fill:#000000;stroke:none;stroke-width:1px;stroke-linecap:butt;stroke-linejoin:miter;stroke-opacity:1"
       id="path3426-2"
       d="m 6118.6113,1046.1953 a 2.9615064,2.9615064 0 0 0 -0.4336,0.029 l -7.4238,1.0606 a 2.9615064,2.9615064 0 0 0 -1.6191,0.7832 l -6.8965,6.541 a 2.9615064,2.9615064 0 0 0 -0.7617,3.1113 l 1.8691,5.4414 -9.8008,-0.1719 a 2.9615064,2.9615064 0 0 0 -2.1719,0.8946 l -6.8925,7.0703 a 2.9615064,2.9615064 0 0 0 -0.8379,2.2148 l 0.8828,17.6778 a 2.9615064,2.9615064 0 0 0 0.3828,1.3144 l 4.4199,7.7774 a 2.9615064,2.9615064 0 0 0 1.3809,1.248 l 8.8398,3.8906 a 2.9615064,2.9615064 0 0 0 2.045,0.125 l 4.4199,-1.3261 4.0742,1.3085 a 2.9615064,2.9615064 0 0 0 1.8144,0 l 10.4297,-3.3593 a 2.9615064,2.9615064 0 0 0 1.3184,-0.8653 l 6.0723,-6.9199 a 2.9615064,2.9615064 0 0 0 -3.7032,-4.5195 l -4.4414,2.5547 -4.5293,-2.3164 0.1289,-8.752 4.3047,-4.0566 6.2696,0.584 a 2.9615064,2.9615064 0 0 0 2.9121,-4.2911 l -4.3028,-8.4589 a 2.9615064,2.9615064 0 0 0 -2.5898,-1.6192 l -8.4688,-0.1387 6.2539,-5.2343 a 2.9615064,2.9615064 0 0 0 1.0196,-2.7578 l -1.0586,-6.3653 a 2.9615064,2.9615064 0 0 0 -2.9063,-2.4746 z m -9.4765,18.9277 -0.7559,0.5743 -0.6894,-0.4434 z"
       transform="matrix(1.8263806,0,0,1.8263806,-11089.04,-906.23105)" />
    <path
       style="fill:#b3b3b3;stroke:none;stroke-width:1.82638073px;stroke-linecap:butt;stroke-linejoin:miter;stroke-opacity:1"
       d="m 29.019435,1085.802 -1.61393,-32.2861 12.591505,-12.9143 18.403053,0.3228 9.040092,5.8114 8.07168,-6.1342 19.69457,0.3228 7.859525,15.4487 -13.883235,-1.2915 -11.30023,10.6545 -0.32287,21.6316 13.88323,7.1031 10.654475,-6.1345 -11.088295,12.6402 -19.04881,6.1344 -9.04009,-2.9056 -9.686066,2.9056 -16.142691,-7.1028 z"
       id="path3426"
       inkscape:connector-curvature="0"
       sodipodi:nodetypes="ccccccccccccccccccc" />
    <path
       style="fill:#b3b3b3;stroke:none;stroke-width:1.82638073px;stroke-linecap:butt;stroke-linejoin:miter;stroke-opacity:1"
       d="m 63.242985,1034.1443 -3.551642,-10.3316 12.591732,-11.946 13.56036,-1.9371 1.93703,11.6231 -13.88301,11.6231 z"
       id="path3428"
       inkscape:connector-curvature="0" />
    <path
       style="fill:#cccccc;stroke:none;stroke-width:2.03012371px;stroke-linecap:butt;stroke-linejoin:miter;stroke-opacity:1"
       d="m 29.019435,1085.802 3.590586,-28.6529 10.809344,-11.1408 -3.422355,-5.4067 -12.591505,12.9143 z"
       id="path3451"
       inkscape:connector-curvature="0"
       sodipodi:nodetypes="cccccc" />
    <path
       style="fill:#e6e6e6;stroke:none;stroke-width:2.03012371px;stroke-linecap:butt;stroke-linejoin:miter;stroke-opacity:1"
       d="m 43.419365,1046.0083 14.980698,-5.0839 -18.403053,-0.3228 z"
       id="path3453"
       inkscape:connector-curvature="0"
       sodipodi:nodetypes="cccc" />
    <path
       style="fill:#cccccc;stroke:none;stroke-width:2.03012371px;stroke-linecap:butt;stroke-linejoin:miter;stroke-opacity:1"
       d="m 67.440155,1046.7358 10.88882,-1.5438 -2.81714,-4.5904 z"
       id="path3455"
       inkscape:connector-curvature="0"
       sodipodi:nodetypes="cccc" />
    <path
       style="fill:#e6e6e6;stroke:none;stroke-width:2.03012371px;stroke-linecap:butt;stroke-linejoin:miter;stroke-opacity:1"
       d="m 78.328975,1045.192 16.87743,-4.2676 -19.69457,-0.3228 z"
       id="path3457"
       inkscape:connector-curvature="0"
       sodipodi:nodetypes="cccc" />
    <path
       style="fill:#999999;stroke:none;stroke-width:2.03012371px;stroke-linecap:butt;stroke-linejoin:miter;stroke-opacity:1"
       d="m 53.234039,1107.1109 4.687143,-3.4769 4.998923,0.5713 z"
       id="path3459"
       inkscape:connector-curvature="0" />
    <path
       style="fill:#999999;stroke:none;stroke-width:2.03012371px;stroke-linecap:butt;stroke-linejoin:miter;stroke-opacity:1"
       d="m 71.960195,1107.1109 13.76731,-8.1633 5.71532,-4.4768 10.654475,-6.1345 -11.088295,12.6402 z"
       id="path3461"
       inkscape:connector-curvature="0"
       sodipodi:nodetypes="cccccc" />
    <path
       style="fill:#999999;stroke:none;stroke-width:2.03012371px;stroke-linecap:butt;stroke-linejoin:miter;stroke-opacity:1"
       d="m 77.559595,1087.3677 -5.22467,-24.4111 15.04885,-13.4268 1.79892,5.5518 -11.30023,10.6545 z"
       id="path3463"
       inkscape:connector-curvature="0"
       sodipodi:nodetypes="cccccc" />
    <path
       style="fill:#808080;stroke:none;stroke-width:2.03012371px;stroke-linecap:butt;stroke-linejoin:miter;stroke-opacity:1"
       d="m 87.383775,1049.5298 15.682155,6.8433 -13.883235,-1.2915 z"
       id="path3465"
       inkscape:connector-curvature="0"
       sodipodi:nodetypes="cccc" />
    <path
       style="fill:#cccccc;stroke:none;stroke-width:2.03012371px;stroke-linecap:butt;stroke-linejoin:miter;stroke-opacity:1"
       d="m 59.691343,1023.8127 13.861502,-8.5443 -1.26977,-3.4017 z"
       id="path3467"
       inkscape:connector-curvature="0" />
    <path
       style="fill:#e6e6e6;stroke:none;stroke-width:2.03012371px;stroke-linecap:butt;stroke-linejoin:miter;stroke-opacity:1"
       d="m 73.552845,1015.2684 12.29059,-5.3388 -13.56036,1.9371 z"
       id="path3469"
       inkscape:connector-curvature="0" />
    <path
       style="fill:#999999;stroke:none;stroke-width:2.03012371px;stroke-linecap:butt;stroke-linejoin:miter;stroke-opacity:1"
       d="m 63.242985,1034.1443 9.92924,-4.2842 0.72523,3.3157 z"
       id="path3473"
       inkscape:connector-curvature="0" />
    <path
       style="fill:#666666;stroke:none;stroke-width:2.03012371px;stroke-linecap:butt;stroke-linejoin:miter;stroke-opacity:1"
       d="m 73.172225,1029.8601 14.60824,-8.3074 -13.88301,11.6231 z"
       id="path3475"
       inkscape:connector-curvature="0" />
  </g>
</svg>
