<?xml version="1.0" encoding="UTF-8" standalone="no"?>
<!-- Created with Inkscape (http://www.inkscape.org/) -->

<svg
   xmlns:dc="http://purl.org/dc/elements/1.1/"
   xmlns:cc="http://creativecommons.org/ns#"
   xmlns:rdf="http://www.w3.org/1999/02/22-rdf-syntax-ns#"
   xmlns:svg="http://www.w3.org/2000/svg"
   xmlns="http://www.w3.org/2000/svg"
   xmlns:sodipodi="http://sodipodi.sourceforge.net/DTD/sodipodi-0.dtd"
   xmlns:inkscape="http://www.inkscape.org/namespaces/inkscape"
   width="128"
   height="128"
   viewBox="0 0 128 128.00001"
   version="1.1"
   id="svg6294"
   inkscape:version="0.92.3 (2405546, 2018-03-11)"
   sodipodi:docname="mystery_unlock.svg">
  <defs
     id="defs6288" />
  <sodipodi:namedview
     id="base"
     pagecolor="#ffffff"
     bordercolor="#666666"
     borderopacity="1.0"
     inkscape:pageopacity="0.0"
     inkscape:pageshadow="2"
     inkscape:zoom="2.1832557"
     inkscape:cx="15.209465"
     inkscape:cy="58.590742"
     inkscape:document-units="px"
     inkscape:current-layer="layer1"
     showgrid="false"
     units="px"
     inkscape:window-width="1366"
     inkscape:window-height="713"
     inkscape:window-x="0"
     inkscape:window-y="27"
     inkscape:window-maximized="1" />
  <metadata
     id="metadata6291">
    <rdf:RDF>
      <cc:Work
         rdf:about="">
        <dc:format>image/svg+xml</dc:format>
        <dc:type
           rdf:resource="http://purl.org/dc/dcmitype/StillImage" />
        <dc:title></dc:title>
      </cc:Work>
    </rdf:RDF>
  </metadata>
  <g
     inkscape:label="Layer 1"
     inkscape:groupmode="layer"
     id="layer1"
     transform="translate(0,-994.51965)">
    <path
       sodipodi:type="inkscape:offset"
       inkscape:radius="3.4059889"
       inkscape:original="M 660.07617 876.50391 L 643.82617 881.7793 L 636.86133 902.88477 L 640.63867 921.05078 L 652.23633 927.75 L 674.90234 922.9043 L 685.43359 901.64844 L 678.01562 882.625 L 660.07617 876.50391 z "
       style="fill:#000000;stroke:none;stroke-width:2.09904504px;stroke-linecap:butt;stroke-linejoin:miter;stroke-opacity:1"
       id="path2008-8-1-2"
       d="m 660.17383,873.09961 a 3.4063295,3.4063295 0 0 0 -1.14844,0.16406 l -16.25,5.27539 a 3.4063295,3.4063295 0 0 0 -2.18359,2.17383 l -6.96485,21.10547 a 3.4063295,3.4063295 0 0 0 -0.0996,1.75976 l 3.77735,18.16602 A 3.4063295,3.4063295 0 0 0 638.93555,924 l 11.59765,6.69922 a 3.4063295,3.4063295 0 0 0 2.41602,0.38086 l 22.66601,-4.8457 a 3.4063295,3.4063295 0 0 0 2.33985,-1.81836 l 10.53125,-21.25586 a 3.4063295,3.4063295 0 0 0 0.12109,-2.75 l -7.41797,-19.02344 a 3.4063295,3.4063295 0 0 0 -2.07422,-1.98438 l -17.93945,-6.12109 a 3.4063295,3.4063295 0 0 0 -1.00195,-0.18164 z"
       transform="matrix(1.81355,0,0,1.81355,-1134.804,-576.17746)" />
    <path
       style="fill:#333333;stroke:none;stroke-width:3.80672312px;stroke-linecap:butt;stroke-linejoin:miter;stroke-opacity:1"
       d="m 108.26525,1059.0052 -13.454004,-34.5 -32.532545,-11.0993 -29.470731,9.5681 -12.630287,38.274 6.848328,32.9464 21.034821,12.1499 41.103384,-8.7879 z"
       id="path2008-8-5"
       inkscape:connector-curvature="0"
       sodipodi:nodetypes="ccccccccc" />
    <path
       style="fill:#f2f2f2;stroke:none;stroke-width:4.79175186px;stroke-linecap:butt;stroke-linejoin:miter;stroke-opacity:1"
       d="m 34.343141,1056.4463 1.473146,-16.3481 9.781745,-6.9306 10.506983,8.6529 0.114253,16.2326 -11.336319,8.4495 z"
       id="path4497-9-9-4"
       inkscape:connector-curvature="0"
       sodipodi:nodetypes="ccccccc" />
    <path
       style="fill:#cccccc;stroke:none;stroke-width:2.7954731px;stroke-linecap:butt;stroke-linejoin:miter;stroke-opacity:1"
       d="m 56.105015,1041.8205 -3.71542,14.2823 -7.50719,10.3998 11.336501,-8.4495 z"
       id="path4507-4-1-26-0"
       inkscape:connector-curvature="0"
       sodipodi:nodetypes="ccccc" />
    <path
       style="fill:#ffffff;fill-opacity:1;stroke:none;stroke-width:2.7954731px;stroke-linecap:butt;stroke-linejoin:miter;stroke-opacity:1"
       d="m 45.598032,1033.1676 -6.83926,8.6009 -4.415631,14.6778 1.473146,-16.3481 z"
       id="path4503-2-6-5"
       inkscape:connector-curvature="0"
       sodipodi:nodetypes="ccccc" />
    <path
       style="fill:#000000;fill-opacity:1;stroke:none;stroke-width:1.9353236px;stroke-linecap:butt;stroke-linejoin:miter;stroke-opacity:1"
       d="m 44.226262,1056.4938 -0.07435,-5.8133 3.525904,-3.4772 3.552744,2.9131 -0.202755,6.1306 -3.750965,3.3674 z"
       id="path4528-0-7-4-9"
       inkscape:connector-curvature="0"
       sodipodi:nodetypes="ccccccc" />
    <path
       style="fill:#f2f2f2;stroke:none;stroke-width:4.79175186px;stroke-linecap:butt;stroke-linejoin:miter;stroke-opacity:1"
       d="m 54.722364,1061.4071 0.873406,-29.8101 13.859693,-9.5345 16.195003,14.9672 -2.29088,26.8356 -14.335567,8.0179 z"
       id="path4499-0-9-4"
       inkscape:connector-curvature="0"
       sodipodi:nodetypes="ccccccc" />
    <path
       style="fill:#cccccc;stroke:none;stroke-width:2.7954731px;stroke-linecap:butt;stroke-linejoin:miter;stroke-opacity:1"
       d="m 85.650466,1037.0297 -9.101121,25.9129 -7.525326,8.9406 14.335567,-8.0179 z"
       id="path4507-9-5-6"
       inkscape:connector-curvature="0"
       sodipodi:nodetypes="ccccc" />
    <path
       style="fill:#ffffff;fill-opacity:1;stroke:none;stroke-width:2.7954731px;stroke-linecap:butt;stroke-linejoin:miter;stroke-opacity:1"
       d="m 69.455463,1022.0625 -9.710654,13.3626 -5.022445,25.982 0.873406,-29.8101 z"
       id="path4505-3-0-9"
       inkscape:connector-curvature="0"
       sodipodi:nodetypes="ccccc" />
    <path
       style="fill:#000000;fill-opacity:1;stroke:none;stroke-width:2.7954731px;stroke-linecap:butt;stroke-linejoin:miter;stroke-opacity:1"
       d="m 58.635642,1057.7219 -0.355093,-8.1229 4.64033,-4.6247 6.393308,5.058 -0.347657,4.9738 -4.156476,4.9465 z"
       id="path4528-6-4-2"
       inkscape:connector-curvature="0"
       sodipodi:nodetypes="ccccccc" />
    <path
       style="fill:#999999;stroke:none;stroke-width:4.96655607px;stroke-linecap:butt;stroke-linejoin:miter;stroke-opacity:1"
       d="m 73.840808,1072.1416 -34.667096,-5.6343 3.895324,27.8556 z"
       id="path4495-0-8-2"
       inkscape:connector-curvature="0"
       sodipodi:nodetypes="cccc" />
    <path
       style="fill:#cccccc;fill-opacity:1;stroke:none;stroke-width:1.59407926px;stroke-linecap:butt;stroke-linejoin:miter;stroke-opacity:1"
       d="m 73.840808,1072.1416 -30.442068,-1.2295 -4.225028,-4.4048"
       id="path4834-6-7-4"
       inkscape:connector-curvature="0"
       sodipodi:nodetypes="ccc" />
    <path
       style="fill:#808080;fill-opacity:1;stroke:none;stroke-width:1.59407926px;stroke-linecap:butt;stroke-linejoin:miter;stroke-opacity:1"
       d="m 43.069036,1094.3629 11.618689,-13.4954 19.153083,-8.7259"
       id="path4836-2-17-7"
       inkscape:connector-curvature="0"
       sodipodi:nodetypes="ccc" />
    <path
       style="fill:#b3b3b3;fill-opacity:1;stroke:none;stroke-width:1.59407926px;stroke-linecap:butt;stroke-linejoin:miter;stroke-opacity:1"
       d="m 43.069036,1094.3629 0.329704,-23.4508 -4.225028,-4.4048"
       id="path4838-6-2-7"
       inkscape:connector-curvature="0"
       sodipodi:nodetypes="ccc" />
    <path
       style="fill:#4d4d4d;stroke:none;stroke-width:2.72111869px;stroke-linecap:butt;stroke-linejoin:miter;stroke-opacity:1"
       d="m 37.551492,1028.2717 -4.743522,-5.2977 -12.630287,38.274 z"
       id="path2067-7-5"
       inkscape:connector-curvature="0"
       sodipodi:nodetypes="cccc" />
    <path
       style="fill:#666666;stroke:none;stroke-width:2.72111869px;stroke-linecap:butt;stroke-linejoin:miter;stroke-opacity:1"
       d="m 37.551492,1028.2717 24.727209,-14.8658 -29.470731,9.5681 z"
       id="path2069-2-4"
       inkscape:connector-curvature="0" />
    <path
       style="fill:#000000;stroke:none;stroke-width:2.72111869px;stroke-linecap:butt;stroke-linejoin:miter;stroke-opacity:1"
       d="m 108.26525,1059.0052 -23.644154,30.6577 4.54312,7.8935 z"
       id="path2239-2-8"
       inkscape:connector-curvature="0" />
    <path
       style="fill:#1a1a1a;stroke:none;stroke-width:2.72111869px;stroke-linecap:butt;stroke-linejoin:miter;stroke-opacity:1"
       d="m 84.621096,1089.6629 -36.560264,16.6814 41.103384,-8.7879 z"
       id="path2241-6-1"
       inkscape:connector-curvature="0" />
    <path
       transform="matrix(1.81355,0,0,1.81355,-320.7338,-908.26578)"
       sodipodi:type="inkscape:offset"
       inkscape:radius="3.032671"
       inkscape:original="M 209.41992 1057.752 L 193.69141 1060.8594 L 191.74805 1076.3438 L 202.1875 1076.4102 L 202.79492 1069.2188 L 211.17969 1068.957 L 221.27344 1073.5879 L 220.68945 1077.8828 L 210.77148 1082.8555 L 205.64648 1090.4727 L 206.02344 1098.3105 L 217.66992 1097.957 L 217.57031 1092.0059 L 220.53906 1085.8613 L 229.55859 1080.1719 L 229.99023 1072.6016 L 226.57031 1063.7422 L 209.41992 1057.752 z M 205.45508 1102.4883 L 205.60352 1110.9531 L 218.11914 1111.127 L 217.32812 1103.2891 L 205.45508 1102.4883 z "
       style="fill:#000000;stroke:none;stroke-width:0.97524053px;stroke-linecap:butt;stroke-linejoin:miter;stroke-opacity:1"
       id="path938-3-2"
       d="m 209.5293,1054.7207 a 3.0329742,3.0329742 0 0 0 -0.69727,0.057 l -15.72851,3.1075 a 3.0329742,3.0329742 0 0 0 -2.42188,2.5976 l -1.94336,15.4844 a 3.0329742,3.0329742 0 0 0 2.99024,3.4102 l 10.43945,0.066 a 3.0329742,3.0329742 0 0 0 3.04101,-2.7774 l 0.38086,-4.5 4.97266,-0.1562 7.40234,3.3964 -0.0645,0.4825 -8.48828,4.2558 a 3.0329742,3.0329742 0 0 0 -1.15625,1.0176 l -5.125,7.6172 a 3.0329742,3.0329742 0 0 0 -0.51367,1.8398 l 0.37695,7.8379 a 3.0329742,3.0329742 0 0 0 0.58789,1.6504 3.0329742,3.0329742 0 0 0 -1.1582,2.4336 l 0.14844,8.4649 a 3.0329742,3.0329742 0 0 0 2.98828,2.9804 l 12.51562,0.1739 a 3.0329742,3.0329742 0 0 0 3.06055,-3.3379 l -0.79102,-7.8379 a 3.0329742,3.0329742 0 0 0 -1.41797,-2.2696 3.0329742,3.0329742 0 0 0 1.77539,-2.8086 l -0.0879,-5.2304 2.27735,-4.7129 8.2832,-5.2266 a 3.0329742,3.0329742 0 0 0 1.41016,-2.3925 l 0.43164,-7.5704 a 3.0329742,3.0329742 0 0 0 -0.19727,-1.2636 l -3.41992,-8.8594 a 3.0329742,3.0329742 0 0 0 -1.83008,-1.7715 l -17.15039,-5.9902 a 3.0329742,3.0329742 0 0 0 -0.89062,-0.168 z" />
    <path
       style="fill:#ff6600;stroke:none;stroke-width:1.76864743px;stroke-linecap:butt;stroke-linejoin:miter;stroke-opacity:1"
       d="m 27.008056,1043.7382 18.935275,0.1179 1.101369,-13.0451 15.204985,-0.4738 18.305971,8.4001 -1.05784,7.7865 -17.98806,9.0211 -9.294625,13.8157 0.683709,14.2164 21.121328,-0.6435 -0.179542,-10.7926 5.38316,-11.143 16.35858,-10.32 0.78183,-13.7305 -6.20198,-16.0657 -31.10311,-10.8639 -28.524239,5.6389 z"
       id="path938-8"
       inkscape:connector-curvature="0"
       sodipodi:nodetypes="cccccccccccccccccc" />
    <path
       style="fill:#ff6600;stroke:none;stroke-width:1.76864743px;stroke-linecap:butt;stroke-linejoin:miter;stroke-opacity:1"
       d="m 51.867474,1091.1518 21.533185,1.4505 1.435244,14.2171 -22.697485,-0.3166 z"
       id="path940-93"
       inkscape:connector-curvature="0"
       sodipodi:nodetypes="ccccc" />
    <path
       style="fill:#ff9955;stroke:none;stroke-width:1.76864743px;stroke-linecap:butt;stroke-linejoin:miter;stroke-opacity:1"
       d="m 27.008056,1043.7382 10.537814,-23.2972 -7.010822,-4.7843 z"
       id="path942-6"
       inkscape:connector-curvature="0"
       sodipodi:nodetypes="cccc" />
    <path
       style="fill:#ff7f2a;stroke:none;stroke-width:1.76864743px;stroke-linecap:butt;stroke-linejoin:miter;stroke-opacity:1"
       d="m 37.54587,1020.441 21.513599,-10.4225 -28.524421,5.6382 z"
       id="path944-8"
       inkscape:connector-curvature="0"
       sodipodi:nodetypes="cccc" />
    <path
       style="fill:#ff7f2a;stroke:none;stroke-width:1.76864743px;stroke-linecap:butt;stroke-linejoin:miter;stroke-opacity:1"
       d="m 59.059469,1010.0185 23.826417,13.2134 7.27651,-2.3495 z"
       id="path946-0"
       inkscape:connector-curvature="0"
       sodipodi:nodetypes="cccc" />
    <path
       style="fill:#d45500;stroke:none;stroke-width:1.76864743px;stroke-linecap:butt;stroke-linejoin:miter;stroke-opacity:1"
       d="m 47.0447,1030.8118 -6.544013,6.8731 5.442644,6.1719 z"
       id="path948-2"
       inkscape:connector-curvature="0"
       sodipodi:nodetypes="cccc" />
    <path
       style="fill:#aa4400;stroke:none;stroke-width:1.76864743px;stroke-linecap:butt;stroke-linejoin:miter;stroke-opacity:1"
       d="m 27.008056,1043.7382 13.492631,-6.0533 5.442644,6.1719 z"
       id="path950-1"
       inkscape:connector-curvature="0"
       sodipodi:nodetypes="cccc" />
    <path
       style="fill:#aa4400;stroke:none;stroke-width:1.76864743px;stroke-linecap:butt;stroke-linejoin:miter;stroke-opacity:1"
       d="m 62.249685,1030.3379 23.945211,5.0157 -5.63924,3.3845 z"
       id="path952-0"
       inkscape:connector-curvature="0"
       sodipodi:nodetypes="cccc" />
    <path
       style="fill:#ff9955;stroke:none;stroke-width:1.76864743px;stroke-linecap:butt;stroke-linejoin:miter;stroke-opacity:1"
       d="m 86.194896,1035.3536 -6.69708,11.1709 1.05784,-7.7864 z"
       id="path954-5"
       inkscape:connector-curvature="0"
       sodipodi:nodetypes="cccc" />
    <path
       style="fill:#d45500;stroke:none;stroke-width:1.76864743px;stroke-linecap:butt;stroke-linejoin:miter;stroke-opacity:1"
       d="m 95.582556,1050.6786 -19.105209,6.3667 2.746799,3.9534 z"
       id="path956-1"
       inkscape:connector-curvature="0" />
    <path
       style="fill:#aa4400;stroke:none;stroke-width:1.76864743px;stroke-linecap:butt;stroke-linejoin:miter;stroke-opacity:1"
       d="m 76.477347,1057.0453 -2.636539,15.0963 5.383338,-11.1429 z"
       id="path958-1"
       inkscape:connector-curvature="0" />
    <path
       style="fill:#d45500;stroke:none;stroke-width:1.76864743px;stroke-linecap:butt;stroke-linejoin:miter;stroke-opacity:1"
       d="m 73.840808,1072.1416 -5.504668,4.8698 5.684028,5.9221 z"
       id="path960-0"
       inkscape:connector-curvature="0"
       sodipodi:nodetypes="cccc" />
    <path
       style="fill:#aa4400;stroke:none;stroke-width:1.76864743px;stroke-linecap:butt;stroke-linejoin:miter;stroke-opacity:1"
       d="m 68.33614,1077.0114 -15.4373,6.5656 21.121328,-0.6435 z"
       id="path962-8"
       inkscape:connector-curvature="0"
       sodipodi:nodetypes="cccc" />
    <path
       style="fill:#ff9955;stroke:none;stroke-width:1.76864743px;stroke-linecap:butt;stroke-linejoin:miter;stroke-opacity:1"
       d="m 52.215131,1069.3613 0.683709,14.2157 3.197107,-14.4422 9.092777,-11.0175 -3.678968,-2.5716 z"
       id="path964-5"
       inkscape:connector-curvature="0"
       sodipodi:nodetypes="cccccc" />
    <path
       style="fill:#ff7f2a;stroke:none;stroke-width:1.76864743px;stroke-linecap:butt;stroke-linejoin:miter;stroke-opacity:1"
       d="m 65.188724,1058.1173 14.309092,-11.5928 -17.98806,9.0212 z"
       id="path966-0"
       inkscape:connector-curvature="0"
       sodipodi:nodetypes="cccc" />
    <path
       style="fill:#ff9955;stroke:none;stroke-width:1.76864743px;stroke-linecap:butt;stroke-linejoin:miter;stroke-opacity:1"
       d="m 52.138418,1106.5028 4.44882,-10.8478 -4.719764,-4.5032 z"
       id="path968-6"
       inkscape:connector-curvature="0"
       sodipodi:nodetypes="cccc" />
    <path
       style="fill:#ff7f2a;stroke:none;stroke-width:1.76864743px;stroke-linecap:butt;stroke-linejoin:miter;stroke-opacity:1"
       d="m 56.587238,1095.655 16.813421,-3.0527 -21.533185,-1.4505 z"
       id="path970-4"
       inkscape:connector-curvature="0"
       sodipodi:nodetypes="cccc" />
    <path
       style="fill:#aa4400;stroke:none;stroke-width:1.76864743px;stroke-linecap:butt;stroke-linejoin:miter;stroke-opacity:1"
       d="m 52.138418,1106.5028 15.976831,-3.546 6.720654,3.8626 z"
       id="path972-6"
       inkscape:connector-curvature="0"
       sodipodi:nodetypes="cccc" />
    <path
       style="fill:#d45500;stroke:none;stroke-width:1.76864743px;stroke-linecap:butt;stroke-linejoin:miter;stroke-opacity:1"
       d="m 68.115249,1102.9568 5.28541,-10.3545 1.435244,14.2171 z"
       id="path974-2"
       inkscape:connector-curvature="0"
       sodipodi:nodetypes="cccc" />
  </g>
</svg>
