<?xml version="1.0" encoding="UTF-8" standalone="no"?>
<!-- Created with Inkscape (http://www.inkscape.org/) -->

<svg
   xmlns:dc="http://purl.org/dc/elements/1.1/"
   xmlns:cc="http://creativecommons.org/ns#"
   xmlns:rdf="http://www.w3.org/1999/02/22-rdf-syntax-ns#"
   xmlns:svg="http://www.w3.org/2000/svg"
   xmlns="http://www.w3.org/2000/svg"
   xmlns:sodipodi="http://sodipodi.sourceforge.net/DTD/sodipodi-0.dtd"
   xmlns:inkscape="http://www.inkscape.org/namespaces/inkscape"
   width="128"
   height="128"
   viewBox="0 0 128 128.00001"
   version="1.1"
   id="svg6294"
   inkscape:version="0.92.3 (2405546, 2018-03-11)"
   sodipodi:docname="windows.svg">
  <defs
     id="defs6288" />
  <sodipodi:namedview
     id="base"
     pagecolor="#ffffff"
     bordercolor="#666666"
     borderopacity="1.0"
     inkscape:pageopacity="0.0"
     inkscape:pageshadow="2"
     inkscape:zoom="2.1832557"
     inkscape:cx="15.209465"
     inkscape:cy="58.590742"
     inkscape:document-units="px"
     inkscape:current-layer="layer1"
     showgrid="false"
     units="px"
     inkscape:window-width="1366"
     inkscape:window-height="713"
     inkscape:window-x="0"
     inkscape:window-y="27"
     inkscape:window-maximized="1" />
  <metadata
     id="metadata6291">
    <rdf:RDF>
      <cc:Work
         rdf:about="">
        <dc:format>image/svg+xml</dc:format>
        <dc:type
           rdf:resource="http://purl.org/dc/dcmitype/StillImage" />
        <dc:title></dc:title>
      </cc:Work>
    </rdf:RDF>
  </metadata>
  <g
     inkscape:label="Layer 1"
     inkscape:groupmode="layer"
     id="layer1"
     transform="translate(0,-994.51965)">
    <path
       sodipodi:type="inkscape:offset"
       inkscape:radius="3.183496"
       inkscape:original="M 6183.043 1049.5117 L 6161.0918 1052.6934 L 6161.7461 1071.6074 L 6183.207 1072.8457 L 6183.043 1049.5117 z M 6156.3418 1052.6934 L 6139.6309 1054.9902 L 6140.2871 1069.8398 L 6156.668 1071.0781 L 6156.3418 1052.6934 z M 6140.3379 1073.3984 L 6140.5352 1086.543 L 6156.6523 1090.6406 L 6156.6914 1074.8242 L 6140.3379 1073.3984 z M 6162.1426 1075.7168 L 6161.8789 1092.1016 L 6183.2012 1098.2832 L 6183.3066 1076.8691 L 6162.1426 1075.7168 z "
       style="fill:#000000;stroke:none;stroke-width:0.96265113px;stroke-linecap:butt;stroke-linejoin:miter;stroke-opacity:1"
       id="path3477-9"
       d="m 6182.9277,1046.3301 a 3.1838143,3.1838143 0 0 0 -0.3418,0.031 l -21.9511,3.1817 a 3.1838143,3.1838143 0 0 0 -1.918,1.0312 3.1838143,3.1838143 0 0 0 -2.8086,-1.0351 l -16.7109,2.2968 a 3.1838143,3.1838143 0 0 0 -2.7461,3.295 l 0.6562,14.8496 a 3.1838143,3.1838143 0 0 0 0.5703,1.6757 3.1838143,3.1838143 0 0 0 -0.5234,1.7891 l 0.1973,13.1445 a 3.1838143,3.1838143 0 0 0 2.3984,3.0391 l 16.1172,4.0977 a 3.1838143,3.1838143 0 0 0 2.9492,-0.7539 3.1838143,3.1838143 0 0 0 2.1758,2.1875 l 21.3223,6.1796 a 3.1838143,3.1838143 0 0 0 4.0703,-3.041 l 0.1054,-21.414 a 3.1838143,3.1838143 0 0 0 -0.7714,-2.0899 3.1838143,3.1838143 0 0 0 0.6718,-1.9707 l -0.164,-23.334 a 3.1838143,3.1838143 0 0 0 -3.2989,-3.1601 z"
       transform="matrix(1.9587324,0,0,1.9587324,-12005.66,-1044.9569)" />
    <path
       style="fill:#00ccff;stroke:none;stroke-width:1.88557601px;stroke-linecap:butt;stroke-linejoin:miter;stroke-opacity:1"
       d="m 20.235411,1021.488 1.283498,29.0858 32.087702,2.424 -0.641749,-36.0109 z"
       id="path3477"
       inkscape:connector-curvature="0" />
    <path
       style="fill:#00ccff;stroke:none;stroke-width:1.88557601px;stroke-linecap:butt;stroke-linejoin:miter;stroke-opacity:1"
       d="m 62.270092,1016.9869 42.997438,-6.2327 0.32075,45.7057 -42.034938,-2.4237 z"
       id="path3479"
       inkscape:connector-curvature="0"
       sodipodi:nodetypes="ccccc" />
    <path
       style="fill:#00ccff;stroke:none;stroke-width:1.88557601px;stroke-linecap:butt;stroke-linejoin:miter;stroke-opacity:1"
       d="m 21.618399,1057.5439 0.385303,25.7469 31.572278,8.0243 0.07341,-30.9776 z"
       id="path3477-6"
       inkscape:connector-curvature="0"
       sodipodi:nodetypes="ccccc" />
    <path
       style="fill:#00ccff;stroke:none;stroke-width:1.88557601px;stroke-linecap:butt;stroke-linejoin:miter;stroke-opacity:1"
       d="m 64.329262,1062.0845 41.455718,2.2571 -0.20759,41.9426 -41.765828,-12.1064 z"
       id="path3479-4"
       inkscape:connector-curvature="0"
       sodipodi:nodetypes="ccccc" />
    <path
       style="fill:#55ddff;stroke:none;stroke-width:2.53155422px;stroke-linecap:butt;stroke-linejoin:miter;stroke-opacity:1"
       d="m 63.553342,1054.0362 3.08647,-31.3366 -4.36972,-5.7127 z"
       id="path3526"
       inkscape:connector-curvature="0" />
    <path
       style="fill:#2ad4ff;stroke:none;stroke-width:2.53155422px;stroke-linecap:butt;stroke-linejoin:miter;stroke-opacity:1"
       d="m 66.639812,1022.6996 38.627718,-11.9454 -42.997438,6.2327 z"
       id="path3528"
       inkscape:connector-curvature="0" />
    <path
       style="fill:#0088aa;stroke:none;stroke-width:2.53155422px;stroke-linecap:butt;stroke-linejoin:miter;stroke-opacity:1"
       d="m 63.553342,1054.0362 35.0843,-3.1429 6.950638,5.5666 z"
       id="path3530"
       inkscape:connector-curvature="0" />
    <path
       style="fill:#00aad4;stroke:none;stroke-width:2.53155422px;stroke-linecap:butt;stroke-linejoin:miter;stroke-opacity:1"
       d="m 98.637642,1050.8933 6.629888,-40.1391 0.32075,45.7057 z"
       id="path3532"
       inkscape:connector-curvature="0" />
    <path
       style="fill:#55ddff;stroke:none;stroke-width:2.53155422px;stroke-linecap:butt;stroke-linejoin:miter;stroke-opacity:1"
       d="m 63.811562,1094.1778 4.88742,-26.3803 -4.36972,-5.713 z"
       id="path3526-8"
       inkscape:connector-curvature="0"
       sodipodi:nodetypes="cccc" />
    <path
       style="fill:#2ad4ff;stroke:none;stroke-width:2.53155422px;stroke-linecap:butt;stroke-linejoin:miter;stroke-opacity:1"
       d="m 68.698982,1067.7975 37.085998,-3.4559 -41.455718,-2.2571 z"
       id="path3528-7"
       inkscape:connector-curvature="0"
       sodipodi:nodetypes="cccc" />
    <path
       style="fill:#0088aa;stroke:none;stroke-width:2.53155422px;stroke-linecap:butt;stroke-linejoin:miter;stroke-opacity:1"
       d="m 63.811562,1094.1778 33.30512,5.3935 8.460708,6.7129 z"
       id="path3530-1"
       inkscape:connector-curvature="0"
       sodipodi:nodetypes="cccc" />
    <path
       style="fill:#00aad4;stroke:none;stroke-width:2.53155422px;stroke-linecap:butt;stroke-linejoin:miter;stroke-opacity:1"
       d="m 97.116682,1099.5713 8.668298,-35.2297 -0.20759,41.9426 z"
       id="path3532-7"
       inkscape:connector-curvature="0"
       sodipodi:nodetypes="cccc" />
    <path
       style="fill:#55ddff;stroke:none;stroke-width:2.53155422px;stroke-linecap:butt;stroke-linejoin:miter;stroke-opacity:1"
       d="m 22.003702,1083.2908 2.876858,-22.0116 -3.262161,-3.7353 z"
       id="path3526-2"
       inkscape:connector-curvature="0"
       sodipodi:nodetypes="cccc" />
    <path
       style="fill:#2ad4ff;stroke:none;stroke-width:2.53155422px;stroke-linecap:butt;stroke-linejoin:miter;stroke-opacity:1"
       d="m 24.88056,1061.2792 28.768835,-0.9417 -32.030996,-2.7936 z"
       id="path3528-72"
       inkscape:connector-curvature="0"
       sodipodi:nodetypes="cccc" />
    <path
       style="fill:#0088aa;stroke:none;stroke-width:2.53155422px;stroke-linecap:butt;stroke-linejoin:miter;stroke-opacity:1"
       d="m 22.003702,1083.2908 26.282848,4.1189 5.28943,3.9054 z"
       id="path3530-2"
       inkscape:connector-curvature="0"
       sodipodi:nodetypes="cccc" />
    <path
       style="fill:#00aad4;stroke:none;stroke-width:2.53155422px;stroke-linecap:butt;stroke-linejoin:miter;stroke-opacity:1"
       d="m 48.28655,1087.4097 5.362845,-27.0722 -0.07341,30.9776 z"
       id="path3532-6"
       inkscape:connector-curvature="0"
       sodipodi:nodetypes="cccc" />
    <path
       style="fill:#55ddff;stroke:none;stroke-width:2.53155422px;stroke-linecap:butt;stroke-linejoin:miter;stroke-opacity:1"
       d="m 21.518909,1050.5738 1.967524,-25.4986 -3.251022,-3.5872 z"
       id="path3526-1"
       inkscape:connector-curvature="0"
       sodipodi:nodetypes="cccc" />
    <path
       style="fill:#2ad4ff;stroke:none;stroke-width:2.53155422px;stroke-linecap:butt;stroke-linejoin:miter;stroke-opacity:1"
       d="m 23.486433,1025.0752 29.478429,-8.0883 -32.729451,4.5011 z"
       id="path3528-0"
       inkscape:connector-curvature="0"
       sodipodi:nodetypes="cccc" />
    <path
       style="fill:#0088aa;stroke:none;stroke-width:2.53155422px;stroke-linecap:butt;stroke-linejoin:miter;stroke-opacity:1"
       d="m 21.518909,1050.5738 26.815235,-1.6324 5.272467,4.0564 z"
       id="path3530-6"
       inkscape:connector-curvature="0"
       sodipodi:nodetypes="cccc" />
    <path
       style="fill:#00aad4;stroke:none;stroke-width:2.53155422px;stroke-linecap:butt;stroke-linejoin:miter;stroke-opacity:1"
       d="m 48.334144,1048.9414 4.630718,-31.9545 0.641749,36.0109 z"
       id="path3532-1"
       inkscape:connector-curvature="0"
       sodipodi:nodetypes="cccc" />
  </g>
</svg>
